/* XPM */
static char *freeimage[] = {
/* width height num_colors chars_per_pixel */
"16 16 144 2",
/* colors */
"   c #ffffff",
" . c #fcfcfc",
" X c #c2d5c2",
" o c #71a071",
" O c #498b49",
" + c #478947",
" @ c #669a66",
" # c #b3cab3",
" $ c #f6f8f6",
" % c #cedfce",
" & c #4b8c4b",
" * c #257825",
" = c #2b7d2b",
" - c #257a25",
" ; c #247924",
" : c #2a7c2a",
" > c #277927",
" , c #3e833e",
" < c #b7cbb7",
" 1 c #afccaf",
" 2 c #267a26",
" 3 c #327e32",
" 4 c #177017",
" 5 c #046704",
" 6 c #006500",
" 7 c #036603",
" 8 c #126d12",
" 9 c #2f7e2f",
" 0 c #237823",
" q c #8faf8f",
" w c #ccd6cc",
" e c #2a7b2a",
" r c #2c7b2c",
" t c #036403",
" y c #006400",
" u c #006600",
" i c #006300",
" p c #247a24",
" a c #abb9ab",
" s c #4f854f",
" d c #2f812f",
" f c #015b01",
" g c #006200",
" h c #006700",
" j c #005900",
" k c #297d29",
" l c #3b7d3b",
" z c #f0f1f0",
" x c #c6cfc6",
" c c #1c711c",
" v c #6ea36e",
" b c #267426",
" n c #005f00",
" m c #006100",
" M c #156a15",
" N c #77a877",
" B c #237323",
" V c #288028",
" C c #a1b0a1",
" Z c #7a9f7a",
" A c #1e781e",
" S c #549154",
" D c #cddecd",
" F c #1b6c1b",
" G c #0b630b",
" H c #aecbae",
" J c #77a777",
" K c #1a771a",
" L c #648d64",
" P c #528c52",
" I c #227922",
" U c #036203",
" Y c #91b791",
" T c #adcaad",
" R c #b2cbb2",
" E c #0d660d",
" W c #1c781c",
" Q c #4c844c",
" ! c #518a51",
" ~ c #237a23",
" ^ c #005d00",
" / c #8eb58e",
" ( c #186a18",
" ) c #055f05",
" _ c #b0cbb0",
" ` c #0c630c",
" ' c #005e00",
" ] c #1e791e",
" [ c #4b824b",
" { c #739673",
" } c #297f29",
" | c #016501",
".  c #c3d8c3",
".. c #afc9af",
".X c #257e25",
".o c #628a62",
".O c #bdc8bd",
".+ c #2a7e2a",
".@ c #0d6b0d",
".# c #b0cab0",
".$ c #0c620c",
".% c #066706",
".& c #2d832d",
".* c #98aa98",
".= c #4d834d",
".- c #2a7f2a",
".; c #97bb97",
".: c #b6ceb6",
".> c #0d630d",
"., c #217821",
".< c #387c38",
".1 c #e8e9e8",
".2 c #c0c7c0",
".3 c #2e7f2e",
".4 c #1e761e",
".5 c #076407",
".6 c #0b650b",
".7 c #156f15",
".8 c #2e832e",
".9 c #9aad9a",
".0 c #9caf9c",
".q c #2f7f2f",
".w c #267c26",
".e c #046604",
".r c #217721",
".t c #2f822f",
".y c #7f9a7f",
".u c #b9c3b9",
".i c #437f43",
".p c #2e802e",
".a c #1d781d",
".s c #1c771c",
".d c #237d23",
".f c #2e812e",
".g c #3a7c3a",
".h c #a1b5a1",
".j c #f4f5f4",
".k c #acbaac",
".l c #6d906d",
".z c #558855",
".x c #548754",
".c c #678c67",
".v c #9db09d",
".b c #eaedea",
/* pixels */
"         . X o O + @ # $        ",
"       % & * = - ; : > , <      ",
"     1 2 3 4 5 6 6 7 8 9 0 q    ",
"   w e r t y u u u u y i * p a  ",
"   s d f g h u u u u u i j k l z",
" x ; c v b n h u u u m M N B V C",
" Z A S   D F n h u m G H   J K L",
" P I U Y   D F n g G T   R E W Q",
" ! ~ g ^ /   D ( ) T   _ ` ' ] [",
" { } | i ^ /  . ..   _ ` m y.X.o",
".O.+.@ 6 i ^ /    .#.$ m u.%.&.*",
" ..=.- g u i ^.;.:.> m h g.,.<.1",
"  .2.3.4 g u y.5.6 g u g.7.8.9  ",
"    .0.q.w.% i g g y.e.r.t.y    ",
"      .u.i.p.X.a.s.d.f.g.h      ",
"        .j.k.l.z.x.c.v.b        "
};

