/* XPM */
static char *freeimage[] = {
/* width height num_colors chars_per_pixel */
"32 32 327 2",
/* colors */
"   c #ffffff",
" . c #fcfcfc",
" X c #d6e1d6",
" o c #a9c2a9",
" O c #87af87",
" + c #73a473",
" @ c #71a371",
" # c #7fa97f",
" $ c #9bba9b",
" % c #c8d8c8",
" & c #eef2ee",
" * c #bdd3bd",
" = c #6da06d",
" - c #317f31",
" ; c #0b660b",
" : c #006200",
" > c #006300",
" , c #056305",
" < c #217621",
" 1 c #559055",
" 2 c #a3bfa3",
" 3 c #b7cdb7",
" 4 c #438643",
" 5 c #056805",
" 6 c #1d751d",
" 7 c #358235",
" 8 c #3e873e",
" 9 c #408840",
" 0 c #3f893f",
" q c #398439",
" w c #267926",
" e c #0c6d0c",
" r c #006400",
" t c #237623",
" y c #8db18d",
" u c #f4f6f4",
" i c #ecf2ec",
" p c #659c65",
" a c #006500",
" s c #0b6b0b",
" d c #3c853c",
" f c #529152",
" g c #438943",
" h c #2e7c2e",
" j c #197319",
" k c #116e11",
" l c #0f6d0f",
" z c #167116",
" x c #257925",
" c c #4f904f",
" v c #478b47",
" b c #1b731b",
" n c #358035",
" m c #c8d5c8",
" M c #dae9da",
" N c #318131",
" B c #327e32",
" V c #589458",
" C c #347e34",
" Z c #0a670a",
" A c #006100",
" S c #026302",
" D c #227422",
" F c #508f50",
" G c #488b48",
" H c #086908",
" J c #0f6b0f",
" K c #a3bba3",
" L c #dce8dc",
" P c #237d23",
" I c #056505",
" U c #4c8d4c",
" Y c #468846",
" T c #066506",
" R c #006600",
" E c #2c7a2c",
" W c #599559",
" Q c #1a711a",
" ! c #036903",
" ~ c #9db49d",
" ^ c #eef1ee",
" / c #318031",
" ( c #066606",
" ) c #539153",
" _ c #005f00",
" ` c #166c16",
" ' c #589558",
" ] c #1c721c",
" [ c #076807",
" { c #bbc6bb",
" } c #679767",
" | c #4d8e4d",
".  c #2d7b2d",
".. c #006000",
".X c #106a10",
".o c #5a965a",
".O c #106f10",
".+ c #217321",
".@ c #eaebea",
".# c #c0cac0",
".$ c #016801",
".% c #368136",
".& c #408740",
".* c #1e721e",
".= c #539253",
".- c #036a03",
".; c #6f936f",
".: c #458045",
".> c #107010",
"., c #569456",
".< c #056405",
".1 c #006700",
".2 c #3f873f",
".3 c #096709",
".4 c #d8dbd8",
".5 c #c8d0c8",
".6 c #016401",
".7 c #418841",
".8 c #287a28",
".9 c #086708",
".0 c #388238",
".q c #005e00",
".w c #267726",
".e c #096809",
".r c #549354",
".t c #066d06",
".y c #779677",
".u c #759875",
".i c #096e09",
".p c #519251",
".a c #036203",
".s c #025f02",
".d c #9abe9a",
".f c #f7f9f7",
".g c #5a945a",
".h c #005900",
".j c #227222",
".k c #dde7dd",
".l c #237123",
".z c #287e28",
".x c #297129",
".c c #f6f6f6",
".v c #dee3de",
".b c #397c39",
".n c #267d26",
".m c #3a843a",
".M c #045f04",
".N c #a0c2a0",
".B c #599259",
".V c #005d00",
".C c #d6e4d6",
".Z c #dee9de",
".A c #277427",
".S c #136e13",
".D c #448c44",
".F c #cad0ca",
".G c #b5c4b5",
".H c #136913",
".J c #3c883c",
".K c #1f761f",
".L c #076207",
".P c #a9c6a9",
".I c #599359",
".U c #227122",
".Y c #e2ebe2",
".T c #297629",
".R c #4d8f4d",
".E c #056d05",
".W c #9dad9d",
".Q c #93b593",
".! c #438b43",
".~ c #106e10",
".^ c #075f07",
"./ c #a0c0a0",
".( c #dae6da",
".) c #267026",
"._ c #458c45",
".` c #0f730f",
".' c #7b987b",
".] c #83a583",
".[ c #026502",
".{ c #468b46",
".} c #0b690b",
".| c #065e06",
"X  c #a0bfa0",
"X. c #267126",
"XX c #005c00",
"Xo c #3f883f",
"XO c #167716",
"X+ c #698e69",
"X@ c #81a281",
"X# c #036503",
"X$ c #458b45",
"X% c #3c863c",
"X& c #177817",
"X* c #678c67",
"X= c #8fb08f",
"X- c #0c6a0c",
"X; c #005a00",
"X: c #408940",
"X> c #137613",
"X, c #759475",
"X< c #adbead",
"X1 c #0d660d",
"X2 c #418a41",
"X3 c #157015",
"X4 c #528e52",
"X5 c #216c21",
"X6 c #026402",
"X7 c #498d49",
"X8 c #0b700b",
"X9 c #95a795",
"X0 c #d6d9d6",
"Xq c #2f742f",
"Xw c #368536",
"Xe c #2d7c2d",
"Xr c #f1f6f1",
"Xt c #dfe9df",
"Xy c #4b8f4b",
"Xu c #026702",
"Xi c #c0c6c0",
"Xp c #f8f8f8",
"Xa c #678f67",
"Xs c #1a791a",
"Xd c #468c46",
"Xf c #1d6b1d",
"Xg c #ececec",
"Xh c #b5c3b5",
"Xj c #036703",
"Xk c #0e6b0e",
"Xl c #4c8f4c",
"Xz c #187718",
"Xx c #638a63",
"Xc c #2f732f",
"Xv c #2e812e",
"Xb c #dae5da",
"Xn c #1a721a",
"Xm c #4d904d",
"XM c #016601",
"XN c #c2c8c2",
"XB c #a3b3a3",
"XV c #046904",
"XC c #559455",
"XZ c #156e15",
"XA c #a7c4a7",
"XS c #dbe6db",
"XD c #016101",
"XF c #1a771a",
"XG c #4f804f",
"XH c #fafafa",
"XJ c #457e45",
"XK c #0b670b",
"XL c #1d6f1d",
"XP c #3c873c",
"XI c #0d680d",
"XU c #d2d5d2",
"XY c #daddda",
"XT c #196c19",
"XR c #2e802e",
"XE c #4f8f4f",
"XW c #026202",
"XQ c #307d30",
"X! c #4e8f4e",
"X~ c #016901",
"X^ c #95a895",
"X/ c #bbc4bb",
"X( c #0d690d",
"X) c #328232",
"X_ c #0b680b",
"X` c #3b833b",
"X' c #046c04",
"X] c #739373",
"X[ c #b5bfb5",
"X{ c #156d15",
"X} c #2c792c",
"X| c #196e19",
"o  c #529052",
"o. c #418941",
"oX c #759575",
"oo c #d0d4d0",
"oO c #377737",
"o+ c #2f7c2f",
"o@ c #0d6a0d",
"o# c #086608",
"o$ c #217421",
"o% c #498b49",
"o& c #529252",
"o* c #217a21",
"o= c #136b13",
"o- c #97a997",
"o; c #f4f4f4",
"o: c #859f85",
"o> c #196b19",
"o, c #127412",
"o< c #3a883a",
"o1 c #4c904c",
"o2 c #3d873d",
"o3 c #368236",
"o4 c #358135",
"o5 c #3a853a",
"o6 c #448b44",
"o7 c #4e904e",
"o8 c #438d43",
"o9 c #217c21",
"o0 c #578557",
"oq c #d4d7d4",
"ow c #e4e5e4",
"oe c #8da48d",
"or c #3d793d",
"ot c #0e700e",
"oy c #1a7a1a",
"ou c #237f23",
"oi c #247f24",
"op c #1e7c1e",
"oa c #086a08",
"os c #277027",
"od c #6d906d",
"of c #c6cbc6",
"og c #d8dad8",
"oh c #adb8ad",
"oj c #8da18d",
"ok c #799579",
"ol c #759275",
"oz c #839b83",
"ox c #a1afa1",
"oc c #c8ccc8",
"ov c #f0f0f0",
/* pixels */
"                       . X o O + @ # $ % &                      ",
"                     * = - ; : > > : , < 1 2 &                  ",
"                 3 4 : 5 6 7 8 9 0 9 q w e r t y u              ",
"             i p a s d f g h j k l z x d c v b r n m            ",
"           M N r B V C Z A : r a a r > A S D F G H J K          ",
"         L P I U Y T A a R R R R R R R R R > A E W Q ! ~        ",
"       ^ / ( ) h _ a R R R R R R R R R R R R R A ` ' ] [ {      ",
"       } R |. .. R R R R R R R R R R R R R R R R >.X.o.O.+.@    ",
"    .#.$.%.& _ R R R R R R R R R R R R R R R R R R :.*.=.-.;    ",
"    .:.>.,.< r.. R R R R R R R R R R R R R R R.1 : : A.2 /.3.4  ",
"  .5.6.7.8 _.9.0.q R R R R R R R R R R R R R R.q.w.w.q.e.r.t.y  ",
" ..u.i.p.a.s.d.f.g.h R R R R R R R R R R R R.q.j L.k.l.h.2.z.x.c",
".v.b.n.m.M.N    .f.B.h R R R R R R R R R R.V.j.C    .Z.A.S.D.6.F",
".G.H.J.K.L.P      .f.I.h R R R R R R R R.q.U.C      .Y.T :.R.E.W",
".Q.6.!.~ :.^./      .f.I.h R R R R R R.q.j.C      .(.).V r._.`.'",
".].[.{.} R >.|X       .f.I.h R R R R.V.j.C      .(X.XX.1 :XoXOX+",
"X@X#X$.e a R >.|X       .f.I.h R.1.q.U.C      .(X.XX.1 R :X%X&X*",
"X=.[._X- a R R >.|X       .f.IX;.q.j.C      .(.)XX.1 R R :X:X>X,",
"X<X1X2X3 a R R R >.|X       .fX4X5.C      .(X.XX.1 R R RX6X7X8X9",
"X0XqXwXe : R R R R >.|X       XrXt      .(X.XX.1 R R R aX-XyXuXi",
"XpXaXsXd A R R R R R >.|X             .(.)XX.1 R R R R >.8.JXfXg",
"  XhXj.pXk a R R R R R >.|X         .(X.XX.1 R R R R R AXlXzXx  ",
"  XpXcXv.2.. R R R R R R >.|X     XbX.XX.1 R R R R R >XnXmXMXN  ",
"    XBXVXCXZ > R R R R R R >.|XAXSX.XX.1 R R R R R RXD.=XFXG .  ",
"    XHXJXF., , a R R R R R R >XKXL.q.1 R R R R R R.. dXPXIXU    ",
"      XYXTXRXEXW r R R R R R R r :.1 R R R R R R _XQX!X~X^      ",
"        X/X(X) fX_ A R R R R R R R R R R R R > AX`X!X'X]        ",
"          X[X{.n WX} : A a R R R R R R R >..X|o o.X~oX          ",
"            oooOX8._ fo+o@ > : A A A :o#o$o%o&o*o=o-            ",
"              o;o:o>o,o<o1X7o2o3o4o5o6o7o8o9 5o0oq              ",
"                  owoeor.eotoyouoiopo,oaosodof                  ",
"                       .ogohojokolozoxocov                      "
};
