/* XPM */
static char *D3NUFK1N[] = {
/* columns rows colors chars-per-pixel */
"128 128 65 1 ",
"  c #003D00",
". c #004500",
"X c #004C00",
"o c #005400",
"O c #005D00",
"+ c #095E09",
"@ c #006600",
"# c #006A00",
"$ c #0A650A",
"% c #0B690B",
"& c #136C13",
"* c #196E19",
"= c #177117",
"- c #1B721B",
"; c #247524",
": c #257925",
"> c #287628",
", c #2C7C2C",
"< c #327E32",
"1 c #348134",
"2 c #3A843A",
"3 c #3E883E",
"4 c #458445",
"5 c #438A43",
"6 c #4B8E4B",
"7 c #4E914E",
"8 c #549454",
"9 c #579857",
"0 c #5A965A",
"q c #5C995C",
"w c #639B63",
"e c #689C68",
"r c #66A066",
"t c #6BA36B",
"y c #71A671",
"u c #75AA75",
"i c #7BAD7B",
"p c #7FB07F",
"a c #83B283",
"s c #8AB28A",
"d c #8EB98E",
"f c #93BC93",
"g c #98BF98",
"h c #9CC29C",
"j c #A6C6A6",
"k c #A7C8A7",
"l c #A8C6A8",
"z c #ABCBAB",
"x c #B1CEB1",
"c c #B4D1B4",
"v c #BCD5BC",
"b c #C0D7C0",
"n c #C3DAC3",
"m c #CADECA",
"M c #CDE0CD",
"N c #D3E4D3",
"B c #D9E7D9",
"V c #DBE9DB",
"C c #E2EEE2",
"Z c #E6F1E6",
"A c #ECF3EC",
"S c #F1F7F1",
"D c #F4F9F4",
"F c #FFFFFF",
"G c None",
/* pixels */
"GGGGGGGGGGGGGGGGGGGGGGGGGGGGGGGGGGGGGGGGGGGGGGGGGGGGGGGGGGGGGGGGGGGGGGGGGGGGGGGGGGGGGGGGGGGGGGGGGGGGGGGGGGGGGGGGGGGGGGGGGGGGGGGG",
"GGGGGGGGGGGGGGGGGGGGGGGGGGGGGGGGGGGGGGGGGGGGGGGGGGGGGGGGGGGGGGGGGGGGGGGGGGGGGGGGGGGGGGGGGGGGGGGGGGGGGGGGGGGGGGGGGGGGGGGGGGGGGGGG",
"GGGGGGGGGGGGGGGGGGGGGGGGGGGGGGGGGGGGGGGGGGGGGGGGGGGGGGGGGGGGGGGGGGGGGGGGGGGGGGGGGGGGGGGGGGGGGGGGGGGGGGGGGGGGGGGGGGGGGGGGGGGGGGGG",
"GGGGGGGGGGGGGGGGGGGGGGGGGGGGGGGGGGGGGGGGGGGGGGGGGGGGGGGoO#@#@@@@#@@@@#@@@oGGGGGGGGGGGGGGGGGGGGGGGGGGGGGGGGGGGGGGGGGGGGGGGGGGGGGG",
"GGGGGGGGGGGGGGGGGGGGGGGGGGGGGGGGGGGGGGGGGGGGGGGGGGO@@@###@@@@@@@@@#@@@@#####@@OGGGGGGGGGGGGGGGGGGGGGGGGGGGGGGGGGGGGGGGGGGGGGGGGG",
"GGGGGGGGGGGGGGGGGGGGGGGGGGGGGGGGGGGGGGGGGGGGGGG@#@@@@@@@@@@@@@@@@@@@@@#@@@@@@@@@#@OGGGGGGGGGGGGGGGGGGGGGGGGGGGGGGGGGGGGGGGGGGGGG",
"GGGGGGGGGGGGGGGGGGGGGGGGGGGGGGGGGGGGGGGGGGGG@##@@@@@@@@@@@@@@@@@@@@@@@@@@@@@@@@@@@#@#OGGGGGGGGGGGGGGGGGGGGGGGGGGGGGGGGGGGGGGGGGG",
"GGGGGGGGGGGGGGGGGGGGGGGGGGGGGGGGGGGGGGGGG@#@@@@@@@@@@@@@@@@@@@@@@@@@@@@@@@@@@@@@@@@@@@@@GGGGGGGGGGGGGGGGGGGGGGGGGGGGGGGGGGGGGGGG",
"GGGGGGGGGGGGGGGGGGGGGGGGGGGGGGGGGGGGGGG@@@@@@@@@@@#@@@@@@@@@@@@@@@@@@@@@@@@@@@@@@@@@@@@@##oGGGGGGGGGGGGGGGGGGGGGGGGGGGGGGGGGGGGG",
"GGGGGGGGGGGGGGGGGGGGGGGGGGGGGGGGGGGGG@##@@@@@@@@@@@@@@@@OOOOO@@OO@O@OOOO@@@@@@@@@@@@@@@@@@@@XGGGGGGGGGGGGGGGGGGGGGGGGGGGGGGGGGGG",
"GGGGGGGGGGGGGGGGGGGGGGGGGGGGGGGGGGG#@@@@@@@@@@@@@@@@OO@=29uhkzcvbbvczhae5;%OOO@@@@@@@@@@@@@@#@XGGGGGGGGGGGGGGGGGGGGGGGGGGGGGGGGG",
"GGGGGGGGGGGGGGGGGGGGGGGGGGGGGGGGG@#@@@@@@@@@@@$@OO%2ukmCBnzhatw089qrpflvNCNcs7-OOO@@@@@@@@@@@@@@GGGGGGGGGGGGGGGGGGGGGGGGGGGGGGGG",
"GGGGGGGGGGGGGGGGGGGGGGGGGGGGGGGG@@@@@@@@@#@@@OO-wkBCvfq<=@OOOOO@OOOOOOO@$;6ixBCvi<@O@@@@@@@@@@@@@OGGGGGGGGGGGGGGGGGGGGGGGGGGGGGG",
"GGGGGGGGGGGGGGGGGGGGGGGGGGGGGG@@@@@@@@@@@@@@&0xCMh7=@OOO@@@@@@@@@@@@@@@@@@OO@%2ubZmi;OO@@@@@@@@@@@@GGGGGGGGGGGGGGGGGGGGGGGGGGGGG",
"GGGGGGGGGGGGGGGGGGGGGGGGGGGGG#@@@@@@@@@@OO,dBBf3$OO@@@@@@@@@@@@@@@@@@@@@@@@@@@@OO:ynAc6$O@@@@@@@@@##OGGGGGGGGGGGGGGGGGGGGGGGGGGG",
"GGGGGGGGGGGGGGGGGGGGGGGGGGG#@@@@@@@@@@OO3zAv0%OO@@@@@@@@@@@@@@@@@@@@@@@@@@@@@@@@@@OO2hZmq$@@@@@@@@@@@@GGGGGGGGGGGGGGGGGGGGGGGGGG",
"GGGGGGGGGGGGGGGGGGGGGGGGGG#@@@@@@@@@@O<xSl3O@@@@@#@@@@@@@@@@@@@@@@@@@@@@@@@@@@@@@@@@@O=iVMqOO@@@@@@@@##GGGGGGGGGGGGGGGGGGGGGGGGG",
"GGGGGGGGGGGGGGGGGGGGGGGGG##@@@@@@@@O-gSz<OO@@#@@@@@@@#@@@@@#@@@@@@@@@@@@@#@@@@@@@@@@@@@O&iCn5O@@@@@@@@@#XGGGGGGGGGGGGGGGGGGGGGGG",
"GGGGGGGGGGGGGGGGGGGGGGGG#@@@@@@@@O@tZb3OO@@@@@@@@@@@@@@@@@@@@@@#@@@@@@@@@@@@@@@@@@@@@@@@@O*fDj*O@#@@@@@@#OGGGGGGGGGGGGGGGGGGGGGG",
"GGGGGGGGGGGGGGGGGGGGGGG#@@@@@@@@O>bCwOO@@@@@@@@@@@@@@@@@@@@@@@@@@@@@@@#@@@@@@@#@@@@#@@@@@@@O<nC0O@@@@@@@@@OGGGGGGGGGGGGGGGGGGGGG",
"GGGGGGGGGGGGGGGGGGGGG@#@@@@@#@@OeAk*O@@@@@@@@@@@@@@@@@@@@@@#@@@@@@@@@@@@@@@@@@#@@@@@@@@@@@@@O@tAk&O@@@@@@@#@GGGGGGGGGGGGGGGGGGGG",
"GGGGGGGGGGGGGGGGGGGG@#@@@@@@@@%jZqO@@@#@@@@@@@@@@@@@@@@@@@@@@@@@@@@@@@@@@@@@@@@@@@@@@@@@@@@@@@O>nB1O@@@@@@@@@GGGGGGGGGGGGGGGGGGG",
"GGGGGGGGGGGGGGGGGGGG#@@@@@@@O>Nm>O@@@@@@@@@@@@@@@@@@@#@@@@@@@@#@@#@@@@@@@#@@@@@@@@@@@@@@@@@@@@@@@dSeO@@@@@@@#@GGGGGGGGGGGGGGGGGG",
"GGGGGGGGGGGGGGGGGGG#@@@@@@@O4Zg$@@@@@@@@@@@@@@@@@@@#@@@@@@@@@@@@@@@@@#@@@@@@@@@@@@@@@@@@@@@@@@@@@O9SaO@@@@@@@#oGGGGGGGGGGGGGGGGG",
"GGGGGGGGGGGGGGGGGG#@@@@@@@O0DiO@@@@@@@@@@@@@@@@@@@@@@@@@@@@@@#@@@@@@@@@@@@@@@@@@@@@@@#@@@@@@@@@#@@O<CjO@@@@@@@#XGGGGGGGGGGGGGGGG",
"GGGGGGGGGGGGGGGGG@@@@@@@@OeDqO@@@@@@@@@@@@@@@@@@@@@@@@@@@@@@@@@@@@@@@@@@#@@@@@@@@@@@@@@@@@@@@@@@@@@O>Nx+@@@@@@@#GGGGGGGGGGGGGGGG",
"GGGGGGGGGGGGGGGG##@@@@@@OtS6o@@@@@@@@@@@@@@@@@@@@@@#@@@@@@@@@@@@#@@@@@@@@@@@@@@@@@@@@@@@@@@@@@@@@@@@O*mc$@@@@@@@#GGGGGGGGGGGGGGG",
"GGGGGGGGGGGGGGG@#@@@@@@OwS6O@@@@#@@@@#@@@@#@@@@@@@@@@#@@@@@#@@@@@@@@@@@#@@@@#@@@@@@@@@@@@#@@@@@@@@@@@@&MxO@@@@@@@@GGGGGGGGGGGGGG",
"GGGGGGGGGGGGGGG#@@@@@@O6D8O@@@@@@@@@@@@@@@@@@@@#@@@@@@@@@@@@@@@@@@@#@@@@@@@@@@@@@@@@@@@@@@@@@@#@@@@@@@O*BhO@@@@@@#OGGGGGGGGGGGGG",
"GGGGGGGGGGGGGG#@@@@@@O1StO@@@@@@@@@@@@@@@#@@@@@@@@@@@@@@@@@@@@@@@@@@@@@@@#@@@@@@@@@@@@@@@@#@@@@@@@@@@@@O;ZaO@@#@@@#GGGGGGGGGGGGG",
"GGGGGGGGGGGGG@#@@@@@O*CsO@@@@@@@@@@@@@@#@@@@@@@@@@@@@#@@@@@@@@@@@@@@@@@@@@@@#@@@@@#@@@@@@@@@@@@@@@@@@@@@O2D9@@@@@@@@GGGGGGGGGGGG",
"GGGGGGGGGGGGG#@@@@@@@bcO@@@@@@@@@#@@@@@@@@@@@@@@@#@@@@@@@@@@#@@@@@@@@@@@@@@@@@@@@@@@@@#@@@@@@@@@@@@@@@@@@OwS<O@@@@@#OGGGGGGGGGGG",
"GGGGGGGGGGGG@@@@@@@OsV&O@@@@@@@@@@@@@@@@@@#@@@@@@@@@@@@@@@@@@@@@@@@@@@#@@@@@@@@@@@@@@@#@@@@@@@@@@@#@@@@@@@OfB%O@@@@@#GGGGGGGGGGG",
"GGGGGGGGGGGO@@@@@@O5D3O@@@@@#@@@@@@@@@#@@@@@@@@@@#@@@@@@@@@@@@@#@#@@@@@@@@@@@@@@@@#@@@@@@@@@@@@@@@@@@@@@@@@$MhO@@@@@@@GGGGGGGGGG",
"GGGGGGGGGGG@@@@@@O&CaO@@@@@@@@@@@@@@@@@@@@@@@@@@@@@@@@@@@@@@@@@@@@@@@@@@@@@#@@#@@@@@@@@@@@#@@@@@@@@@@@@@@@@O,D8O@@@@@#XGGGGGGGGG",
"GGGGGGGGGG@@@@@@@Ogm@@@@@@@@@@@@@@@#@@@@@@@@#@@@@@@@@@#@@@@#@@@@@@@@@@@@@@@@@@@@@@@@@@@@@@@@@@#@@@@@#@@@@@@@OuC&@@@@@@@GGGGGGGGG",
"GGGGGGGGGG@@@@@@O3D1@@@@@@@@@@@@@@@@@@@@@@@@@@@@@@@@@@#@@@@@@@@@@@@@@@@@@@#@@@@@@@@@@@@@@@#@@@@@@@@@@@@@@@@@@@mgO@@@@@#XGGGGGGGG",
"GGGGGGGGGO@@#@@@@MfO@@@@@@@@@@@@@@@@@@@#@@@@@@@@@@@@@@@@@@@@@@#@@@@@@@@@@@@@@@@@@@@@@@@@@@@@@@@@@@@@@@@@@@@@@O2S1O@@@@@@GGGGGGGG",
"GGGGGGGGG#@@@@@@eZ&@@@@@@@@@@#@@@@@#@@@@@@@@@@@@@#@@@@@@@@@#@@@@@@@#@@@@@@@@@@@#@@#@@@@@@@@@@@@@@@@@@@@@@@@@@@Ojn@@@@@@#XGGGGGGG",
"GGGGGGGGO@@@@@@%CtO@@@@@@@@@@@@@@@@@@@@@@@@#@@@@@@@@@@@@@@@@@@@@@@@@#@@@@@@@@@@@@@@@#@@@@@@@@@@@@@@#@@@@@@@@@@O-A7O@@@@@@GGGGGGG",
"GGGGGGGG@@@@#@OuB$@@@@@@@@@@@@@@@@@@@@@@@#@@@#@@@@@@@@@@@@@@@@@@@@@@@@@@@@@@#@@@@@@@@@@@@@@@@@@@@@@@@@@@@@@@@@@Odm@@@@@@#GGGGGGG",
"GGGGGGG.#@@@@@%CeO@@@@@@@@@@@O@@@@@@@@@@@@@@@@@@@@@@@@@@@@@@@@@@@@@@@@@@@@@@@@@@@@@@@@@@@@@@@@@@#@@@O@@@@@@@@@@@*A8O@@@@@@GGGGGG",
"GGGGGGG@#@@@@OtV$@@@@@@@@@@O,d$O@@@@@@@@@@@@@@@@@@@@@@@@@@@@@@@@@@@@@@@@@@@@@@@@@@@@@@@@@@@@@@@@@@OetO@@@@@@@@@@OdbO@@@@@#GGGGGG",
"GGGGGGG#@@@@@@NiO@@@@@@@@@O>VFl+@@@@@@@@@@@@@@@@@#@@#@@@@@@@#@@@@@@#@@#@@@@@@@@@@@#@@@@#@@@@@@@@@OwFFeoO@@@@@@@@@;A2@@@@@#oGGGGG",
"GGGGGGo@@@@@O6Z=@@@@@@@@@O>BFFFl+O@@@@@@@@@#@@#@@@@@@@@@#@@@@@@@@@@@@@@@@@@#@@@@@@@@@@@@@@@@@@@@owDFFFwo@@@@@@@@@OzjO@@@@@@GGGGG",
"GGGGGG@@@@@@OljO@@@@@@@@O;BFFFFFj+O@@@@@@@@@@@@@@@@@@@@@@@@@@@@#@@@@@@@@@@@@@@@@@@@@@@@@@@@@@@@owFFFFFFwo@@@@@@@@O6C&@@@@@#GGGGG",
"GGGGGG#@@@@@=Z3O@@@@@@@O;BFFFFFFFj+O@@@@@@@@@@@@@@#@@@@@@@@@@@@@@#@@@@@@@@@@@@@@#@@@@@@@@@@@@@owFFFFFFFFeo@@@@@@@@@NtO@@@@#XGGGG",
"GGGGGo#@@@@OrN$@@@@@@@O>VFFFFFFFFFl+@@@@@@@@@@@@@@@@@@#@@@@@@@@@@@@@@#@@@@@@@#@@@@@@@@#@@@@@@OwFFFFFFFFFFeo@@@@@@@Osv@@@@@@@GGGG",
"GGGGG@@@@@@OcdO@@@@@@O>BFFFFFFFFFFFj+O@@@@@@@@@@@@@@@@@@@@#@@@@@@@@@@@@@@@@@@#@@@@@@@@#@@@@@owFFFFFFFFFFFFeo@@@@@@@<Z;@@@@@#GGGG",
"GGGGG@@@@@@=C3O@@@@@O;BFFFFFFFFFFFFFl+O@@@@@@@@@@@@@@@@@@@@@@@#@@@@@@@@@@#@@@@@@@@@@@@@@@@@OqFFFFFFFFFFFFFFeo@@@@@@@MrO@@@@#GGGG",
"GGGGG#@@@@O8B%@@@@@O>BFFFFFFFFFFFFFFFj+O@@@@@@@@@@@@@@@@@@@@@@@@#@@@@@@#@@@@@@@@@@@@@@@@@@OwFFFFFFFFFFFFFFFFeoO@@@@OfzO@@@@#oGGG",
"GGGGX#@@@@OgkO@@@@@<VFFFFFFFFFFFFFFFFFj+O@@@@@@@@@@@@@@@@@@@@@@@@@@@@@@@@@@@@@@@@@@@@@@@@owFFFFFFFFFFFFFFFFFFyO@@@@O7B%@@@@@@GGG",
"GGGGO@@@@@OmrO@@@@@4DFFFFFFFFFFFFFFFFFFj+O@@@@@@@@@@@@@@@#@@#@@@@@@#@@@@@@@#@@#@@@@@@@@@owFFFFFFFFFFFFFFFFFFFdO@@@@@*C2O@@@@@GGG",
"GGGG@@@@@@-C1@@@@@@o4AFFFFFFFFFFFFFFFFFFl+O@@@@@@@#@@@@#@@@@@@@@@@@@@@@@@@@@@@@@@@@@@@@owFFFFFFFFFFFFFFFFFFFsOO@@@@@@btO@@@@#GGG",
"GGGG#@@@@@6B%@@@@@@@O4AFFFFFFFFFFFFFFFFFFj+O@@@@@@@@@@@@@@@@@@@@@@@@@@@@@@@@@@@@@@@@@@owDFFFFFFFFFFFFFFFFFFsoOO@@@@@OgjO@@@@@.GG",
"GGGG#@@@@OucO@@@@@@@@o4AFFFFFFFFFFFFFFFFFFl+O@@@@@@@@@@@@@@@@@@@@@@@@@@@@@@@@@@@@@@@@owDFFFFFFFFFFFFFFFFFFsXOO@@@@@@Owb@@@@@#XGG",
"GGGG#@@#@OjfO@@@@@@@@@o4AFFFFFFFFFFFFFFFFFFj+O@@@@@@@@@@@@@@@@@@@@@@@@@@@@@@@@@@@@@@OwFFFFFFFFFFFFFFFFFFFsXO@O@@@@@@@2V&@@@@@oGG",
"GGGo#@@@@@vrO@@@@@@@@@@o4AFFFFFFFFFFFFFFFFFFj+O@@@@@@@@@@@@@@#@@@#@@@@@@@@@@@@#@@@@owFFFFFFFFFFFFFFFFFFFsoO@@@@@@@@@@=C,@@@@@@GG",
"GGGo#@@@@%M6O@@@@@@@@@@@o4AFFFFFFFFFFFFFFFFFFl+O@@@@@@@@@@@@@@@@@@@@@@@@@@@@@@@@@@oqDFFFFFFFFFFFFFFFFFFsoOO@@@@@@@@@@@m6@@@@@@GG",
"GGG@#@@@@=V,O@@@@@@@@@@@@o4AFFFFFFFFFFFFFFFFFFl+@@@@@@@@@@@@@@@@@@@@@@@@@#@@@@@@@OwFFFFFFFFFFFFFFFFFFFsoOO@@@@@@@@@@@OveO@@@@@GG",
"GGG@@@@@@>V=@@@@@@@@@@@@@Oo4AFFFFFFFFFFFFFFFFFFj+O@@@@@@@@@@@@@@@@@@@@@@@@@@@@@@OwFFFFFFFFFFFFFFFFFFFsoO@@@O@@@@@@@@@@za@@#@@#GG",
"GGGO@@@@O3N%@@@@@@@@@@@@@@@o4AFFFFFFFFFFFFFFFFFFj+O@@@@@@@@@@@@@@@@@@@@@@@@@@@@OqFFFFFFFFFFFFFFFFFFFsoOO@@@@@@@@@@@@@OgfO@@@@#GG",
"GGGO#@@@O5n$@@@@@@@@@@@@@@@Oo4AFFFFFFFFFFFFFFFFFFj+O@@@@@@@@@#@@@@@#@@@@@@@@@@OwFFFFFFFFFFFFFFFFFFFsoO@@@@@@@@@@@@@@@OajO@@@@#GG",
"GGG@@@@@@8n@@@@@@@@@@@@@@@@@@o4AFFFFFFFFFFFFFFFFFFj+O@@@@@@@@@@@@@@@@@@@@@@@@owFFFFFFFFFFFFFFFFFFFsoO@O@@@#@@@@@@@@@@OukO@@@@#GG",
"GGG@#@@@OqvO@@@@@@@@@@@@@@@@@@o4AFFFFFFFFFFFFFFFFFFj+O@@@@@@@@@@@@@@@@@@@@@@owFFFFFFFFFFFFFFFFFFFsoO@@@@@@@@@#@@@@@@@Ouk@@@@@#GG",
"GGG@@@@@Oqv@@@@@@@@@@@@@@@@@@@@o4AFFFFFFFFFFFFFFFFFFl+O@@@@@@@@@@@@@@@@@@@@owFFFFFFFFFFFFFFFFFFFsXOO@O@@@@@@@@@@@#@@@Ouk@@@@@@GG",
"GGGO#@#@O9bO@@@@#@@@@@@@@@@@@@@@o4AFFFFFFFFFFFFFFFFFFj+O@@@@@@@@@@@@@@@@@@OqDFFFFFFFFFFFFFFFFFFsoOO@@@@@@@@@@@@@@@@@@OukO@@@@#GG",
"GGGO#@@@O6n@@@@@@@@@@@@@@@@@@@@@@o4AFFFFFFFFFFFFFFFFFFl+O@@@@@@@@@@#@@@@@OwFFFFFFFFFFFFFFFFFFFsoO@@@@@@@@@@#@@@@@@@@@@ajO@@@@#GG",
"GGG@@@@@O4M%@@@@@@@@@@@@@@@@@@@@@Oo4AFFFFFFFFFFFFFFFFFFj+O@@@@@@@@@@@@@@oqFFFFFFFFFFFFFFFFFFFsoO@@@@@@@@@@@@@@@@@@@@@@dhO@@@@#GG",
"GGG@#@@@@<B%@@@@@@@@@@@@@@@@#@@@@@@o4AFFFFFFFFFFFFFFFFFFj+O@@@@@@@@@@@@owFFFFFFFFFFFFFFFFFFFsoO@O@@@@@@@@@@@@@@@#@@@@OjsO@@@@#GG",
"GGGX#@@@@-Z;@@@@@#@@@@@@@@@@@@@@@@@@o4AFFFFFFFFFFFFFFFFFFj+O@@@@@@@#@@OwFFFFFFFFFFFFFFFFFFFsXO@O@@@@@@@@@@@@@@@@@@@@@OcyO@@@@@GG",
"GGGX#@@@@%N2@@@@@@@@@@@@@@@@@@@@@@@@@o4AFFFFFFFFFFFFFFFFFFj+O@@@@@@@@OwFFFFFFFFFFFFFFFFFFFsoOO@@@@@@@@@@@@@@#@@@@@@@@@n0O@@@@@GG",
"GGGG#@@@@@n0O@@@@@#@@@@@@@@@@@@@@@@@@Oo4AFFFFFFFFFFFFFFFFFFj+O@@@@@@oqFFFFFFFFFFFFFFFFFFFsoO@@@@@@@@@@@@@@@@@@@@@@@@@=B2@@@@@oGG",
"GGGG@@@@@OxaO@@@@@@@@@@@@@@@@@@@@@@@@@@o4AFFFFFFFFFFFFFFFFFFl+O@@@@OwFFFFFFFFFFFFFFFFFFFsoO@@@@@@@@@#@@@@@@@@@#@@@@@@,V=@@@@@XGG",
"GGGG#@@@@OdkO@@@@@@@@@@@@#@@@@#@@@@@@@@Oo4AFFFFFFFFFFFFFFFFFFj+O@OowFFFFFFFFFFFFFFFFFFFsoO@O@@@@@@@@@@@@@@@@@@@@@@@@O8M%@@@@# GG",
"GGGG@#@@@Oqm@@@@@@@@#@@@@@@@@@@@@@@@@@@@@o4AFFFFFFFFFFFFFFFFFFl+OoqFFFFFFFFFFFFFFFFFFFsoOO@O@@@@@@@@@@@@@@@#@@@@@@@@OpcO@@@@#GGG",
"GGGGO#@@@@,C-@@#@@@@@@@@@@@@@@@#@@@@@@@@O@o4AFFFFFFFFFFFFFFFFFFl+0FFFFFFFFFFFFFFFFFFFsoO@O@@@@@@@@@@@@@@@@@@@@@@@@@@OcaO@@@@@GGG",
"GGGG.@@@@@$B8@@@@@@@@@@@@@@@@@@@@@@@@@@@@@@o4AFFFFFFFFFFFFFFFFFFnDFFFFFFFFFFFFFFFFFFsoO@@@@@@@#@@@@@@@@@@@@@@@@#@@@@%B6O@@@#@GGG",
"GGGGG#@@@@OzdO@@@@@@@@@@#@@@@@@@@@@@@@@@@@@@o4AFFFFFFFFFFFFFFFFFFFFFFFFFFFFFFFFFFFFsXOO@@@@@@@@@@@@@@@@@@@@#@@@@@@@@1C-@@@@#XGGG",
"GGGGG@@@@@Oyn@@@@@@#@@@@@@@@@@@@@@@@@@@@@@@@@o4AFFFFFFFFFFFFFFFFFFFFFFFFFFFFFFFFFFsoO@@@@@@@@@@@@@@@@@@@@@@@@@@@@@@Oun@@@@@#GGGG",
"GGGGGO@@@@O,Z:@@@@@@@@@@#@@@@@@@@@@@@@#@@@@@@@o4AFFFFFFFFFFFFFFFFFFFFFFFFFFFFFFFFsoO@@@@#@@@@@@@@@@@#@@@@@@@@@@@@@@OvaO@@@@@GGGG",
"GGGGGX#@@@@@myO@@@@@@@@@@@@@@@@@@@@@@@@@@@#@@@@o4AFFFFFFFFFFFFFFFFFFFFFFFFFFFFFFsoOOO@@@@@@@@@@##@@@@@@@@@#@@@@@@@@=C2O@@@@OGGGG",
"GGGGGG#@@@@OsvO@@@@@@@@@@@@@@@@@@@@@@@@@@@@@@@@@o4AFFFFFFFFFFFFFFFFFFFFFFFFFFFFsoOO@@@@@@@@@@@@@@@@@@@@@@@@@@@@@@@OeB@@@@@#XGGGG",
"GGGGGG@@@@@@1Z:O@@@@@@@@@@@@@@#@@@@@@@@@@@@@@@@@@o4AFFFFFFFFFFFFFFFFFFFFFFFFFFsoOO@@@@@@@@@@@@@@@@@@@@@@@@@@@@@@@@OvsO@@@@#GGGGG",
"GGGGGGX#@@@@@MuO@@@@@@@@@#@@@@@@@@@@@@@@@@@@@@@@O@o4AFFFFFFFFFFFFFFFFFFFFFFFFsoO@O@@@@@@@@@@@@@@@@@@@@@@@@@@@@@@@@:A1@@@@@@GGGGG",
"GGGGGGG@@@@@OtB$@@@@@@@@@@@@@#@@@@@@@@@@@@@@@@@@@@@o4AFFFFFFFFFFFFFFFFFFFFFFsoOOO@@@@@@@#@@@@#@@@@@@#@@@@@@@@@@@@Oan@@@@@#.GGGGG",
"GGGGGGG@@@@@@&Z7O@@@@@@@@@@@@@@@@@@@@@@#@@@@@@@@@@@@o4AFFFFFFFFFFFFFFFFFFFFsoO@@@@@@@@@@@@@@@@@@@@@@@@@@@@#@@@@@@$VwO@@@@#GGGGGG",
"GGGGGGGG#@@@@Ogv@@@@@@@@@@@@@@@@@@@#@@@@@@@@@@@@@@@O@o4AFFFFFFFFFFFFFFFFFFsoOOO@@@@@@@@@@@@@@@@@@#@@@@@@@@@@@@@@OwC%@@@@#OGGGGGG",
"GGGGGGGG@#@@@@,A2O@@@@@@@@@@@@#@@@@@@@@@@@@@@@@@@@@@@@o4AFFFFFFFFFFFFFFFFsoO@@@@@@@@@@@@@@#@@@@@@@@@@@@@@@@@@@@@@NiO@@@@#GGGGGGG",
"GGGGGGGGX#@@@@OkxO@@@@@@@#@@@@@@@@@@@@@@@@@@@@@@@@@@@@@o4AFFFFFFFFFFFFFFsXO@@@@@@@@@@@@@@@@@@@@@@@#@@@@@@@@@@@@O0Z=@@@@#@GGGGGGG",
"GGGGGGGGG@@@@@@>D3O@@@@@@@@@@@@@@@@#@@#@@@@@@@@@@@@@@@@@o4AFFFFFFFFFFFFsoOO@@@@@@@@@@@@@@@@@@#@@@@@@#@@@@@@@@@@$NaO@@@@#.GGGGGGG",
"GGGGGGGGGo#@@@@OgnO@@@@@@@@@@@@@@@@@@@@@@@@@@@@@@@@@@@@@@o4AFFFFFFFFFFsoOO@@@@@@@@@@@@#@@@@@@@@@@@@@@@@@@@@@@@OrC&@@@@@@GGGGGGGG",
"GGGGGGGGGG#@@@@@-S0O#@@@@@@@@@@@@@#@@@@@@@@@@@@@@@@@@@@@@@o4AFFFFFFFFsoOO@O@@@@@@@@@@@@@@@@@@@@@@@@@@@@@@@@@@@&CtO@@@@#.GGGGGGGG",
"GGGGGGGGGGo#@@@@OuC%@@@@@@@@@@@@@@@@@@@@@@@@@@@@@@@@@@@@@O@o4AFFFFFFsXOO@@@@@@@@@@@@@@@@@@@@@@@@@@@@@@@@@@@@@OgmO@@@@@@GGGGGGGGG",
"GGGGGGGGGGG#@@@@@@NfO@@@@@@#@@@@@@@@@@@#@@@@@@@@@@@@@@@@@@@Oo4AFFFFsoOO@@@@@@@@@@@@@@@@@@@@@@@@@@@@@@@@@@@@@O2D2O@@@@#GGGGGGGGGG",
"GGGGGGGGGGG.#@@@@O2D5O@@@@@@#@@@@@@@@@@@@@@#@@@@@@@@@@@@@@@@@o4AFFsoO@@@@@@@@@@@@@@@@@@@#@@@@#@@@@@@#@@@@@@@$BfO@@@@@@GGGGGGGGGG",
"GGGGGGGGGGGG@@@@@@OaV&@@@@@@@@@@@@@@@@@@@@@@#@@@@@@@@@@@@@@@@@o4AdoO@@@@@@#@@@@#@#@@@@@@@@@#@@@@@#@@@@@@@@@ofB%@@@@@#GGGGGGGGGGG",
"GGGGGGGGGGGGG#@@@@@$mkO@@@@@@@@@@@@@@@@@@@@#@@@@@@@@@@@@#@@@@@@O>OO@@@@@@@@@@@@@@@@@@#@@@@@@@@@#@@@@@#@@@@O8D<O@@@@@oGGGGGGGGGGG",
"GGGGGGGGGGGGGo@@@@@@;AtO@@@@@@@@@@@@@@@@@@@@@@@@@@@#@@@@@@@@@@@@OOO@@@@@@@@@@@@@@@@@@@@@@@@@@@@@@@@@@@@@@O;AyO@@@@@@GGGGGGGGGGGG",
"GGGGGGGGGGGGGG@@@@@@O6F5O@@@@@@@@#@@#@@@@@@@@@@@@@@@@#@@@@@@@@@@@@@@@@@@@@@@@@@@@@@@@@@@@@@@@@@@@@@@@@@@@$MjO@@@@@#GGGGGGGGGGGGG",
"GGGGGGGGGGGGGGG#@@@@@OuA;O@@@@@@@@@@@@@@@@@@@@@@@@@@@@@@@@@@@@@@@@@@@@@@@@@@@@@@@@@@@@@@@@@@@@@@@@@@@#@@OzM$@@@@@#XGGGGGGGGGGGGG",
"GGGGGGGGGGGGGGG.#@@@@@OhV*O@@@@@@@@@@@@@@@@@@@@@@@@@@@@@@#@@@@#@@@@@@#@@@@#@@@@@@@@@@@@@@@@#@@@@@@@@@@@OfC=@@@@@@@GGGGGGGGGGGGGG",
"GGGGGGGGGGGGGGGGO@@@@@@OxM&O@@@@@@@@@@@@@#@@@@@@@@@@@#@@@@@@@@@@@@@@@@@@@@@@@@@@@@@@@#@@@@@@@@@@@@@@@@OaA>@@@@@@#GGGGGGGGGGGGGGG",
"GGGGGGGGGGGGGGGGG@#@@@@@$vm&@@@@@@@@@@@@@@@@@@#@@#@@@@@@@@@@@@@@@@@@@@@@@@@@@@#@@@#@@@@@@@@@@@#@@@@@@OiA<O@@@@@#GGGGGGGGGGGGGGGG",
"GGGGGGGGGGGGGGGGGG###@@@@$cM*O@@@@@@@@@@@@@@@@@@@@@@@@@@@#@@@@@@@@@@@@@@@@@@@@@@@@@@@@@@@@@@@@@@@@@@OsA1O@@@@@#.GGGGGGGGGGGGGGGG",
"GGGGGGGGGGGGGGGGGGG#@@@@@O$zV,O@@@@@@@@@@@@@@@@@@@@@@@@@@@@@@@@@@@@@@@@@@@@@@#@@@@@#@@@@@@@@@@@@@@O@hC1O@@@@@#XGGGGGGGGGGGGGGGGG",
"GGGGGGGGGGGGGGGGGGGG##@@@@@OfZ5O@@@@@@@@@@@@@@@@@@@@@@#@@@@@#@@@@@@@@@@@@@@#@@@@@@@@@#@@@@@@@@@@@O*bB;@@@@@@#oGGGGGGGGGGGGGGGGGG",
"GGGGGGGGGGGGGGGGGGGGG#@@@@@@OyFuO@@@@@@@@@@@@@@@#@@@@@@@@@@@@@@@@@@@@@@@@@@@@@@@@@@@@@@@@@@@@@@@O1Bv&O@@@@@#oGGGGGGGGGGGGGGGGGGG",
"GGGGGGGGGGGGGGGGGGGGGG#@@@@@@O6Cz*O@@@@@@@@@@@@@@@@@#@@@@@@@@@@@@@@@@@@@@@@@@@@@@@@@@@@@@@@@@@@OtDdOO@@@@@#oGGGGGGGGGGGGGGGGGGGG",
"GGGGGGGGGGGGGGGGGGGGGGG#@@@@@@O>nV6O@@@@@@@@@@@@@@@@@@@@@@@@@@@@#@@@@@@@@@@@@@@@@@@@@@@@@@@@@O-xC8O@@@@@@#oGGGGGGGGGGGGGGGGGGGGG",
"GGGGGGGGGGGGGGGGGGGGGGGG##@@@@@OOiDh*o@@@@@@@@@@@@@@@@@@#@@@@@@@@@@@@@@@@@@@@@@@@@@@#@@@@@@OOeCv;O@@@@@@#XGGGGGGGGGGGGGGGGGGGGGG",
"GGGGGGGGGGGGGGGGGGGGGGGGG@@@@@@@@O1nVe@@@@@@@@@@@@@@@@@@@@@@#@@@@@@@@@@#@@@#@@@@#@@@@@@@@OO2bCtO@@@@@@@#GGGGGGGGGGGGGGGGGGGGGGGG",
"GGGGGGGGGGGGGGGGGGGGGGGGGGO@@@@@@@@@eCm6OO@@@@@@@@@@@@@@@@@@@@@@@@@@@@@@@@@@@@@@@@@@@@@@O>jSh-O@@@@@@#@GGGGGGGGGGGGGGGGGGGGGGGGG",
"GGGGGGGGGGGGGGGGGGGGGGGGGGGX#@@@@@@@O*dZv6@O@@@@@@@@@@@@@@@@@@@@@@@@@@@@@@@@@#@@@@@@@@O:fZv2O@@@@@@@#OGGGGGGGGGGGGGGGGGGGGGGGGGG",
"GGGGGGGGGGGGGGGGGGGGGGGGGGGGG@##@@@@@@O;fZnq&OO@@@@@@@@@@@@@@@@@@@@@@@@@@@@@@@@@@@@OO3lAv6OO@@@@@@@@XGGGGGGGGGGGGGGGGGGGGGGGGGGG",
"GGGGGGGGGGGGGGGGGGGGGGGGGGGGGGo#@@@@@@@OO;aVVf<@O@@@@@@@@@@@@@@@@#@@@@@@@@@@@@@@OO-tnZz4OO@@@@@@##@GGGGGGGGGGGGGGGGGGGGGGGGGGGGG",
"GGGGGGGGGGGGGGGGGGGGGGGGGGGGGGGG@#@@@@@@@@O%qcZma2$OO@@@@@@@@@@@@@@@@@@@@@@@@O@;exCMi:O@@@@@@@@##XGGGGGGGGGGGGGGGGGGGGGGGGGGGGGG",
"GGGGGGGGGGGGGGGGGGGGGGGGGGGGGGGGG.##@@@@@@@@OO;yvCNjr1%OOOO@@@@@@@@@@@OOOO$;8dnCMf4$OO@@@@@@@#@OGGGGGGGGGGGGGGGGGGGGGGGGGGGGGGGG",
"GGGGGGGGGGGGGGGGGGGGGGGGGGGGGGGGGGGo##@@@@@@@@@OO-9gnCBvhu92:-%%%%%=;16rdxMCNzy<@O@@@@@@@@@@#@GGGGGGGGGGGGGGGGGGGGGGGGGGGGGGGGGG",
"GGGGGGGGGGGGGGGGGGGGGGGGGGGGGGGGGGGGGO#@@@@@@@@@@@OO@=5thxnNBBBNMMNBBBmvjp8:%OOO@@@@@@@@@@#@GGGGGGGGGGGGGGGGGGGGGGGGGGGGGGGGGGGG",
"GGGGGGGGGGGGGGGGGGGGGGGGGGGGGGGGGGGGGGGo@@@@@@@@@@@@@@@OO@@%-><2331>;&$@OO@@@@@@@@@@@@@##OGGGGGGGGGGGGGGGGGGGGGGGGGGGGGGGGGGGGGG",
"GGGGGGGGGGGGGGGGGGGGGGGGGGGGGGGGGGGGGGGGG.@##@@@@@@@@@@@@@@@@@@OOO@@@@@@@@@@@@@@@@@@##@oGGGGGGGGGGGGGGGGGGGGGGGGGGGGGGGGGGGGGGGG",
"GGGGGGGGGGGGGGGGGGGGGGGGGGGGGGGGGGGGGGGGGGGGo@##@@@#@@@@@@@@@@@@@@@@@@@@@@@@@@@@@##@OGGGGGGGGGGGGGGGGGGGGGGGGGGGGGGGGGGGGGGGGGGG",
"GGGGGGGGGGGGGGGGGGGGGGGGGGGGGGGGGGGGGGGGGGGGGGGXO@##@@@@@@@@@@@@@@@@@@@@@@@@@#@@@oGGGGGGGGGGGGGGGGGGGGGGGGGGGGGGGGGGGGGGGGGGGGGG",
"GGGGGGGGGGGGGGGGGGGGGGGGGGGGGGGGGGGGGGGGGGGGGGGGGGGXO@#####@@@@@@@@@@@#@###@@o GGGGGGGGGGGGGGGGGGGGGGGGGGGGGGGGGGGGGGGGGGGGGGGGG",
"GGGGGGGGGGGGGGGGGGGGGGGGGGGGGGGGGGGGGGGGGGGGGGGGGGGGGGGG XoO@O@@@@@@O@oo.GGGGGGGGGGGGGGGGGGGGGGGGGGGGGGGGGGGGGGGGGGGGGGGGGGGGGGG",
"GGGGGGGGGGGGGGGGGGGGGGGGGGGGGGGGGGGGGGGGGGGGGGGGGGGGGGGGGGGGGGGGGGGGGGGGGGGGGGGGGGGGGGGGGGGGGGGGGGGGGGGGGGGGGGGGGGGGGGGGGGGGGGGG",
"GGGGGGGGGGGGGGGGGGGGGGGGGGGGGGGGGGGGGGGGGGGGGGGGGGGGGGGGGGGGGGGGGGGGGGGGGGGGGGGGGGGGGGGGGGGGGGGGGGGGGGGGGGGGGGGGGGGGGGGGGGGGGGGG"
};
