/* XPM */
static char *freeimage[] = {
/* width height num_colors chars_per_pixel */
"64 64 549 2",
/* colors */
"   c #ffffff",
" . c #fafafa",
" X c #e0e6e0",
" o c #bdd2bd",
" O c #9fbd9f",
" + c #85a685",
" @ c #71a271",
" # c #679967",
" $ c #659b65",
" % c #699a69",
" & c #77a277",
" * c #8da98d",
" = c #a7c4a7",
" - c #c8d7c8",
" ; c #eaecea",
" : c #e8ede8",
" > c #abc5ab",
" , c #699e69",
" < c #358635",
" 1 c #0f6d0f",
" 2 c #006800",
" 3 c #006a00",
" 4 c #006c00",
" 5 c #006900",
" 6 c #036903",
" 7 c #197319",
" 8 c #458f45",
" 9 c #7da47d",
" 0 c #c0d1c0",
" q c #f4f5f4",
" w c #b9cfb9",
" e c #5f9b5f",
" r c #197519",
" t c #006700",
" y c #006600",
" u c #006500",
" i c #006400",
" p c #006b00",
" a c #016901",
" s c #2d822d",
" d c #7da77d",
" f c #d4ded4",
" g c #abc4ab",
" h c #3f893f",
" j c #006200",
" k c #005f00",
" l c #005e00",
" z c #006100",
" x c #096709",
" c c #106c10",
" v c #147014",
" b c #157115",
" n c #136f13",
" m c #0f6b0f",
" M c #066506",
" N c #006000",
" B c #006300",
" V c #0b6f0b",
" C c #5b945b",
" Z c #c8d4c8",
" A c #bbd0bb",
" S c #418c41",
" D c #005d00",
" F c #086608",
" G c #297c29",
" H c #559455",
" J c #6ea66e",
" K c #7dae7d",
" L c #84b184",
" P c #80af80",
" I c #7aab7a",
" U c #79ab79",
" Y c #7bac7b",
" T c #83b083",
" R c #7aac7a",
" E c #66a166",
" W c #498c49",
" Q c #1c741c",
" ! c #076c07",
" ~ c #659865",
" ^ c #dee2de",
" / c #ecf0ec",
" ( c #6ba36b",
" ) c #016b01",
" _ c #016201",
" ` c #327f32",
" ' c #6fa56f",
" ] c #8db68d",
" [ c #5e995e",
" { c #3a843a",
" } c #1b741b",
" | c #0e6b0e",
".  c #026302",
".. c #016301",
".X c #036403",
".o c #116d11",
".O c #237823",
".+ c #458a45",
".@ c #67a167",
".# c #86b386",
".$ c #87b487",
".% c #5e9a5e",
".& c #1e731e",
".* c #1b751b",
".= c #99b699",
".- c #c6d7c6",
".; c #2d862d",
".: c #046304",
".> c #4f8f4f",
"., c #8fb88f",
".< c #81b081",
".1 c #4a8c4a",
".2 c #1f751f",
".3 c #5c985c",
".4 c #317e31",
".5 c #598e59",
".6 c #e8ebe8",
".7 c #9bbe9b",
".8 c #0d700d",
".9 c #458945",
".0 c #96bb96",
".q c #78a978",
".w c #257625",
".e c #036203",
".r c #3e853e",
".t c #89b389",
".y c #257525",
".u c #d0d7d0",
".i c #81b381",
".p c #1a6e1a",
".a c #83b183",
".s c #005c00",
".d c #448744",
".f c #97bd97",
".g c #639d63",
".h c #026202",
".j c #197219",
".k c #bbcabb",
".l c #7db37d",
".z c #418841",
".x c #9abf9a",
".c c #488b48",
".v c #066406",
".b c #6ea26e",
".n c #90b990",
".m c #1f701f",
".M c #0f720f",
".N c #b7c7b7",
".B c #85b385",
".V c #639c63",
".C c #8db88d",
".Z c #1a6d1a",
".A c #3b833b",
".S c #9dc09d",
".D c #368036",
".F c #117211",
".G c #c4cbc4",
".H c #a1bea1",
".J c #76a876",
".K c #7bab7b",
".L c #026102",
".P c #438943",
".I c #1b721b",
".U c #dadeda",
".Y c #ccd8cc",
".T c #0d720d",
".R c #70a470",
".E c #126912",
".W c #93bb93",
".Q c #398039",
".! c #f2f2f2",
".~ c #f0f2f0",
".^ c #2f852f",
"./ c #69a069",
".( c #98be98",
".) c #347f34",
"._ c #006d00",
".` c #719671",
".' c #75a075",
".] c #4a8e4a",
".[ c #89b589",
".{ c #025f02",
".} c #1e721e",
".| c #9ec19e",
"X  c #197019",
"X. c #036d03",
"XX c #b9c3b9",
"Xo c #cad4ca",
"XO c #076e07",
"X+ c #227422",
"X@ c #9cc09c",
"X# c #106910",
"X$ c #3d853d",
"X% c #8fb98f",
"X& c #036103",
"X* c #317931",
"X= c #f4f4f4",
"X- c #498a49",
"X; c #036003",
"X: c #90b890",
"X> c #378237",
"X, c #70a570",
"X< c #8fa78f",
"X1 c #b7c3b7",
"X2 c #559555",
"X3 c #76a976",
"X4 c #096509",
"X5 c #1f731f",
"X6 c #1f721f",
"X7 c #eaeaea",
"X8 c #498849",
"X9 c #0f6a0f",
"X0 c #116c11",
"Xq c #448b44",
"Xw c #7faf7f",
"Xe c #91a991",
"Xr c #ccd3cc",
"Xt c #056d05",
"Xy c #639e63",
"Xu c #609c60",
"Xi c #016001",
"Xp c #8eb88e",
"Xa c #297a29",
"Xs c #2f782f",
"Xd c #739873",
"Xf c #0c690c",
"Xg c #94bb94",
"Xh c #0d670d",
"Xj c #3d843d",
"Xk c #005a00",
"Xl c #7aaa7a",
"Xz c #7cab7c",
"Xx c #005900",
"Xc c #418941",
"Xv c #b7c0b7",
"Xb c #277827",
"Xn c #4e904e",
"Xm c #6ea46e",
"XM c #0c630c",
"XN c #b0ccb0",
"XB c #e5ede5",
"XV c #357c35",
"XC c #73a373",
"XZ c #75a375",
"XA c #005800",
"XS c #056405",
"XD c #90ba90",
"XF c #187018",
"XG c #678f67",
"XH c #c0cbc0",
"XJ c #297b29",
"XK c #afccaf",
"XL c #e4ede4",
"XP c #73a473",
"XI c #75a475",
"XU c #629d62",
"XY c #579657",
"XT c #257425",
"XR c #eeeeee",
"XE c #7f9d7f",
"XW c #8ab58a",
"XQ c #036303",
"X! c #347c34",
"X~ c #257925",
"X^ c #83b283",
"X/ c #016a01",
"X( c #c4cac4",
"X) c #498749",
"X_ c #4c8f4c",
"X` c #67a067",
"X' c #146a14",
"X] c #b8d2b8",
"X[ c #347b34",
"X{ c #7daa7d",
"X} c #157015",
"X| c #8da38d",
"o  c #217621",
"o. c #70a770",
"oX c #3b863b",
"oo c #176c17",
"oO c #c9dcc9",
"o+ c #88b288",
"o@ c #6da56d",
"o# c #3f883f",
"o$ c #5d8a5d",
"o% c #d4ddd4",
"o& c #076a07",
"o* c #84b284",
"o= c #177217",
"o- c #166616",
"o; c #c1d5c1",
"o: c #83ac83",
"o> c #005700",
"o, c #4d8f4d",
"o< c #3b7c3b",
"o1 c #f8f8f8",
"o2 c #b5c9b5",
"o3 c #066606",
"o4 c #166516",
"o5 c #005500",
"o6 c #2c7d2c",
"o7 c #75aa75",
"o8 c #217321",
"o9 c #a1bba1",
"o0 c #207720",
"oq c #156415",
"ow c #005400",
"oe c #167116",
"or c #7eae7e",
"ot c #0d6c0d",
"oy c #dadcda",
"ou c #91aa91",
"oi c #328032",
"op c #0d6a0d",
"oa c #0a670a",
"os c #056905",
"od c #ced2ce",
"of c #87a087",
"og c #3c843c",
"oh c #619e61",
"oj c #c6cbc6",
"ok c #839f83",
"ol c #408740",
"oz c #5e9b5e",
"ox c #166416",
"oc c #106d10",
"ov c #8ba28b",
"ob c #3c853c",
"on c #609d60",
"om c #076607",
"oM c #0f6c0f",
"oN c #caceca",
"oB c #99b399",
"oV c #348134",
"oC c #6aa46a",
"oZ c #83ab83",
"oA c #0b690b",
"oS c #096b09",
"oD c #d2d5d2",
"oF c #abc1ab",
"oG c #237923",
"oH c #78ab78",
"oJ c #137013",
"oK c #7fae7f",
"oL c #176e17",
"oP c #e0e1e0",
"oI c #c6d2c6",
"oU c #016801",
"oY c #136e13",
"oT c #82b082",
"oR c #046404",
"oE c #277b27",
"oW c #77ab77",
"oQ c #2f772f",
"o! c #f0f0f0",
"o~ c #e4e6e4",
"o^ c #126e12",
"o/ c #337b33",
"o( c #005000",
"o) c #72a472",
"o_ c #478b47",
"o` c #659f65",
"o' c #4d834d",
"o] c #fcfcfc",
"o[ c #377c37",
"o{ c #338133",
"o} c #dde8dd",
"o| c #8eb28e",
"O  c #488c48",
"O. c #759575",
"OX c #658e65",
"Oo c #abb8ab",
"OO c #a3b4a3",
"O+ c #84b384",
"O@ c #1c731c",
"O# c #89b489",
"O$ c #116e11",
"O% c #e0e2e0",
"O& c #0f6e0f",
"O* c #8ab68a",
"O= c #1e751e",
"O- c #569556",
"O; c #478047",
"O: c #4d854d",
"O> c #5b995b",
"O, c #016101",
"O< c #8bb78b",
"O1 c #227722",
"O2 c #91a691",
"O3 c #a5b4a5",
"O4 c #166f16",
"O5 c #076507",
"O6 c #318031",
"O7 c #237523",
"O8 c #73a873",
"O9 c #4d914d",
"O0 c #3a853a",
"Oq c #618b61",
"Ow c #87a187",
"Oe c #1c721c",
"Or c #96bd96",
"Ot c #086508",
"Oy c #307f30",
"Ou c #015f01",
"Oi c #056b05",
"Op c #c4c9c4",
"Oa c #1d721d",
"Os c #6aa16a",
"Od c #619d61",
"Of c #026002",
"Og c #307e30",
"Oh c #598859",
"Oj c #93a993",
"Ok c #006e00",
"Ol c #0b660b",
"Oz c #99bf99",
"Ox c #227522",
"Oc c #c3d6c3",
"Ov c #84ad84",
"Ob c #589758",
"On c #0b6e0b",
"Om c #ccd0cc",
"OM c #f6f6f6",
"ON c #377b37",
"OB c #92ba92",
"OV c #046104",
"OC c #1c6e1c",
"OZ c #005b00",
"OA c #267626",
"OS c #9ac09a",
"OD c #799879",
"OF c #c6ccc6",
"OG c #096e09",
"OH c #74a774",
"OJ c #0d660d",
"OK c #99be99",
"OL c #2f7d2f",
"OP c #317831",
"OI c #ececec",
"OU c #5a975a",
"OY c #509050",
"OT c #c2c8c2",
"OR c #558855",
"OE c #076307",
"OW c #8cb78c",
"OQ c #519151",
"O! c #81af81",
"O~ c #629b62",
"O^ c #93a793",
"O/ c #0b650b",
"O( c #8bb68b",
"O) c #086408",
"O_ c #739573",
"O` c #2b782b",
"O' c #056305",
"O] c #77a977",
"O[ c #207120",
"O{ c #94bc94",
"O} c #569456",
"O| c #638d63",
"+  c #dee0de",
"+. c #2f792f",
"+X c #659c65",
"+o c #92bb92",
"+O c #297629",
"++ c #4b8d4b",
"+@ c #398239",
"+# c #658f65",
"+$ c #e4e5e4",
"+% c #438043",
"+& c #367f36",
"+* c #659d65",
"+= c #096609",
"+- c #237323",
"+; c #84b084",
"+: c #166d16",
"+> c #779777",
"+, c #6b936b",
"+< c #649d64",
"+1 c #95bc95",
"+2 c #71a571",
"+3 c #96bc96",
"+4 c #468946",
"+5 c #117011",
"+6 c #99ab99",
"+7 c #a1b2a1",
"+8 c #1b731b",
"+9 c #196f19",
"+0 c #6ea36e",
"+q c #91ba91",
"+w c #669f66",
"+e c #267826",
"+r c #3a833a",
"+t c #93b993",
"+y c #549354",
"+u c #3b7d3b",
"+i c #c8cdc8",
"+p c #dcdedc",
"+a c #5d8c5d",
"+s c #88b488",
"+d c #187218",
"+f c #217721",
"+g c #71a771",
"+h c #8eb78e",
"+j c #408640",
"+k c #859f85",
"+l c #b9c2b9",
"+z c #478247",
"+x c #6ea76e",
"+c c #82b182",
"+v c #85b285",
"+b c #73a973",
"+n c #69a369",
"+m c #6ca56c",
"+M c #86b286",
"+N c #66a066",
"+B c #3e863e",
"+V c #106b10",
"+C c #0f6f0f",
"+Z c #d4d7d4",
"+A c #558755",
"+S c #2a7d2a",
"+D c #338033",
"+F c #358235",
"+G c #317f31",
"+H c #267a26",
"+J c #0b680b",
"+K c #d0d3d0",
"+L c #d6d8d6",
"+P c #498249",
"+I c #598759",
"+U c #a5b3a5",
"+Y c #e4e4e4",
"+T c #dcdddc",
"+R c #b1bcb1",
"+E c #7f9a7f",
"+W c #3d7d3d",
"+Q c #277527",
"+! c #136d13",
"+~ c #1d711d",
"+^ c #2d762d",
"+/ c #458045",
"+( c #618a61",
"+) c #8da28d",
"+_ c #bdc5bd",
"+` c #e6e6e6",
"+' c #dadbda",
"+] c #d8dad8",
"+[ c #e2e3e2",
/* pixels */
"                                                                                                                                ",
"                                                   . X o O + @ # $ % & * = - ;                                                  ",
"                                             : > , < 1 2 3 4 5 5 5 3 3 4 2 6 7 8 9 0 q                                          ",
"                                         w e r 3 5 t t y y u u i i i u u y y t 2 p a s d f                                      ",
"                                     g h 2 2 t y u j k l z x c v b n m M N l k B y y t 3 V C Z                                  ",
"                                 A S 5 2 y y z D F G H J K L P I U Y T T R E W Q z l B y t 3 ! ~ ^                              ",
"                             / ( ) 2 y u k _ ` ' ] K [ { } | M. ...X x.o.O.+.@.#.$.%.& l z y t p.*.=                            ",
"                          .-.; 2 y y k.:.>.,.<.1.o k l z B u u y y y u u B N l z.2.3., K.4 l j y 2 p.5.6                        ",
"                        .7.8 t y B l.9.0.q.w l k i y y y y y y y y y y y y y y y B D.e.r.t.<.y D u t p s.u                      ",
"                      .i 3 t y l.p L.a.y.s j y y y y y y y y y y y y y y y y y y y y y N k.d.f.g.h j y 5.j.k                    ",
"                    .l 3 y u D.z.x.c D j y y y y y y y y y y y y y y y y y y y y y y y y y k.v.b.n.m l y 5.M.N                  ",
"                  .B p y u l.V.C.Z D y y y y y y y y y y y y y y y y y y y y y y y y y y y y i.s.A.S.D D y 2.F.G                ",
"                .H p y i k.J.K.L j y y y y y y y y y y y y y y y y y y y y y y y y y y y y y y y l.m.f.P.s y 5.I.U              ",
"              .Y.T t u l.J.R D i y y y y y y y y y y y y y y y y y y y y y y y y y y y y y y y y y z.E.W.P D y 4.Q.!            ",
"            .~.^ 2 y.s./.J D u y y y y y y y y y y y y y y y y y y y y y y y y y y y y y y y y y y y j.E.(.) k y._.`            ",
"            .' p y l.].[.{ u y y y y y y y y y y y y y y y y y y y y y y y y y y y y y y y y y y y y y z.}.|X  j tX.XX          ",
"          XoXO t zX+X@X# B y y y y y y y y y y y y y y y y y y y y y y y y y y y y y y y y y y y y y y y lX$X%X& u 3X*X=        ",
"          X- 3 uX;X:X> k y y y y y y y y y y y y y y y y y y y y y y y y y y y y y y y y y y y y y y y y y.sX, e D y._X<        ",
"        X1 p t lX2X3.s y y y y y y y y y y y y y y y y y y y y y y y y y y y y y y y y y y y y y y y y y y uX4.(X5 j 5X6X7      ",
"        X8 3 iX9.(X0 B y y y y y y y y y y y y y y y y y y y y y y y y y y y y y y y y y y y y y y y y y y y lXqXw D y._Xe      ",
"      XrXt y DXyXu.s y y y B k z y y y y y y y y y y y y y y y y y y y y y y y y y y y y y y y y u N N u y y yXiXpXa j 3XsX=    ",
"      Xd 4 iXfXg m i y y zXhX@XjXk y y y y y y y y y y y y y y y y y y y y y y y y y y y y y y uXkXlXzXx u y y kXc R D t pXv    ",
"    X=Xb 5 kXnXm D y y zXMXN  XBXVXx y y y y y y y y y y y y y y y y y y y y y y y y y y y y uXkXC    XZXA u y yXSXDXF B 4XG    ",
"    XH 5 y N.BXJ j y zXMXK      XLXVXx y y y y y y y y y y y y y y y y y y y y y y y y y y uXkXP        XIXA u y DXUXY l 5XTXR  ",
"    XE._ B 7XWXQ y jXMXK          XLX!Xx y y y y y y y y y y y y y y y y y y y y y y y y uXkXP            XIXx u jX~X^ N tX/X(  ",
"    X) 3 kX_X` D iX'X]              XLX[Xx y y y y y y y y y y y y y y y y y y y y y y uXxXP                X{ k u.X.[X} i._X|  ",
"  .!o  2 lo.oX z BoooO                XLXVXx y y y y y y y y y y y y y y y y y y y y uXxXC                  o+ D u lo@o# N._o$  ",
"  o%o& tXQo*o= i y No-o;                XLXVXx y y y y y y y y y y y y y y y y y y uXkXC                  o:o> B y ko,Xu l po<o1",
"  o2 2 uX0o*o3 u y t lo4o;                XLXVXx y y y y y y y y y y y y y y y y uXkXP                  o:o5 z y y jo6o7 k 5o8X7",
"  o9 p Bo0 R N y y y t Doqo;                XLXVXx y y y y y y y y y y y y y y uXkXP                  o:ow z y y y ioeor.  totoy",
"  ou._ joio@ k y y y y t loqo;                XLX!Xx y y y y y y y y y y y y uXkXP                  o:o5 z y y y y uop.aoa yosod",
"  of._ zogoh l y y y y y t loqo;                XLX!Xx y y y y y y y y y y uXxXP                  o:o5 z y y y y y u F.< m u 6oj",
"  ok._ Noloz l y y y y y y t loxo;                XLXVXx y y y y y y y y uXxXC                  o:o5 z y y y y y y u M Koc u 6oj",
"  ov._ Nobon k y y y y y y y t loxo;                XLXVXx y y y y y y uXkXC                  o:o5 z y y y y y y y uom PoM y 6oN",
"  oB 4 zoVoC k y y y y y y y y t loxo;                XLXVXx y y y y uXkXP                  oZow z y y y y y y y y uXf.aoA yoSoD",
"  oF 5 BoGoH k y y y y y y y y y t loqo;                XLX!Xx y y uXkXP                  o:ow z y y y y y y y y y uoJoK.X toLoP",
"  oIoU ioYoToR y y y y y y y y y y t loxo;                XLX!Xx uXxXP                  o:o5 z y y y y y y y y y y joEoW k 3oQo!",
"  o~oJ tXS.#o^ i y y y y y y y y y y t loqo;                XLo/o(o)                  o:o5 z y y y y y y y y y y y ko_o` l po'o]",
"   .o[ 3 lo7o{ z y y y y y y y y y y y t loxo;                o}o|                  o:o5 j y y y y y y y y y y y y lX`O  N._O.  ",
"    OX._ l Hoz l y y y y y y y y y y y y t loxo;                                  o:o5 z y y y y y y y y y y y y y _.B Q i pOo  ",
"    OO._ B.OO+ N y y y y y y y y y y y y y t loxo;                              o:ow z y y y y y y y y y y y y y BO@O#.e tO$oy  ",
"    O%O& t.eO*O= B y y y y y y y y y y y y y t loqo;                          o:ow z y y y y y y y y y y y y y y lO-.g D pO;o1o]",
"      O: p lO>Xu D y y y y y y y y y y y y y y t loqo;                      o:o5 z y y y y y y y y y y y y y y yO,O<O1 j._O2  o]",
"      O3._ iO4.WO5 u y y y y y y y y y y y y y y t loqo;                  o:o5 z y y y y y y y y y y y y y y y NO6.B l 2O$oyo]  ",
"      o!O7 5 DO8O9 l y y y y y y y y y y y y y y y t loxo;              o:o5 z y y y y y y y y y y y y y y y y D.aO0 N._Oq  o]  ",
"        Ow._ BOeOrOt u y y y y y y y y y y y y y y y t loxo;          o:o5 z y y y y y y y y y y y y y y y y NOyO<Ou tOiOp  o]  ",
"        X7Oa 5 DOsOd.s y y y y y y y y y y y y y y y y t loxo;      o:ow z y y y y y y y y y y y y y y y y uOf.nOg N._Oho] .    ",
"          OjOk iOlOzOx z y y y y y y y y y y y y y y y y t loqOc  Ovo5 z y y y y y y y y y y y y y y y y y.sObX3.s 2OnOm        ",
"          OMON p kX>OBOV u y y y y y y y y y y y y y y y y t lOC $OZ z y y y y y y y y y y y y y y y y y NOAOSXh iOkOD   .      ",
"            OFOG 2.so`OH.s y y y y y y y y y y y y y y y y y t zOZ B y y y y y y y y y y y y y y y y y BOJOKOL N 4OPOIo]        ",
"              OwOk u koTOU.s y y y y y y y y y y y y y y y y y y y y y y y y y y y y y y y y y y y y iX&.[OY.s 5 VOT  o]        ",
"               .OROk BOEOWOQ.s y y y y y y y y y y y y y y y y y y y y y y y y y y y y y y y y y y BOuO!O~.s tOkO^   .          ",
"                OIo[ 4 jO/O(.3.s i y y y y y y y y y y y y y y y y y y y y y y y y y y y y y y y zO)o*.V.s yOkO_o] .            ",
"                  oPO` 4 jO' PO].e z y y y y y y y y y y y y y y y y y y y y y y y y y y y y y DO[O{O}.s yOkO|o1 .o]            ",
"                    + +.._ i k+X+o+O.s i y y y y y y y y y y y y y y y y y y y y y y y y y j D++OS+@.s tOk+#X= .o]              ",
"                      +$+%Ok y.s+&.f+*+= l u y y y y y y y y y y y y y y y y y y y y y B.s+-+; T+: l 5._+>o1 .o]                ",
"                        .!+,._ 5 k M+<+1 Hoa D j y y y y y y y y y y y y y y y y u N D.}+2+3+4 D B 4+5+6o] .o]                  ",
"                            +7+8._ u D+9+0+q+w+eO, D N i u y y y y y y y u B k l+=+r R+t+y.v k 2Ok+u+i  o1o]                    ",
"                              +p+a p 4 i DX0O}.#+so`X$+d x z k k k k k..op+f+++g+h R+jXS l t._ b+ko!   .                        ",
"                                  +l+z p 4 y l NO@o,+x+c+v Y+b+n E+mo7or+M K+N+B+V l N 2._+CXG+Z   .o]                          ",
"                                    o]Xv+AO&._ p u k l _ | }+S+D+F+G+Hoe+J N l z t 4 4o8O_+K  o] .                              ",
"                                          +LX|+P n p._ p 5 t u B B i u t 3 4._X/o8+I+U+Y     .                                  ",
"                                        o]     .+T+R+EOh+W+QX X0 m+!+~+^+/+(+)+_+`o]  o]o]                                      ",
"                                              o]        OMX7oP+'+]+T+[OIo1      o]o]o]                                          "
};
