/* XPM */
static char * umbrella_btc32_xpm[] = {
"32 32 84 1",
" 	c None",
".	c #FFFFFF",
"+	c #6C6C6C",
"@	c #444444",
"#	c #464646",
"$	c #7A7A7A",
"%	c #363636",
"&	c #000000",
"*	c #030303",
"=	c #4A4A4A",
"-	c #010101",
";	c #4F4F4F",
">	c #EFEFEF",
",	c #EBEBEB",
"'	c #B3B3B3",
")	c #080808",
"!	c #B9B9B9",
"~	c #E4E4E4",
"{	c #494949",
"]	c #555555",
"^	c #FEFEFE",
"/	c #C2C2C2",
"(	c #090909",
"_	c #C9C9C9",
":	c #F6F6F6",
"<	c #BFBFBF",
"[	c #C6C6C6",
"}	c #474747",
"|	c #7E7E7E",
"1	c #DEDEDE",
"2	c #DDDDDD",
"3	c #E8E8E8",
"4	c #F7F7F7",
"5	c #DCDCDC",
"6	c #F8F8F8",
"7	c #D8D8D8",
"8	c #7F7F7F",
"9	c #929292",
"0	c #FAFAFA",
"a	c #939393",
"b	c #949494",
"c	c #FDFDFD",
"d	c #959595",
"e	c #383838",
"f	c #626262",
"g	c #969696",
"h	c #D9D9D9",
"i	c #5F5F5F",
"j	c #616161",
"k	c #676767",
"l	c #606060",
"m	c #4E4E4E",
"n	c #CBCBCB",
"o	c #D1D1D1",
"p	c #454545",
"q	c #393939",
"r	c #0A0A0A",
"s	c #EEEEEE",
"t	c #F4F4F4",
"u	c #2C2C2C",
"v	c #111111",
"w	c #262626",
"x	c #2D2D2D",
"y	c #040404",
"z	c #9A9A9A",
"A	c #B8B8B8",
"B	c #020202",
"C	c #747474",
"D	c #666666",
"E	c #757575",
"F	c #0B0B0B",
"G	c #E9E9E9",
"H	c #B4B4B4",
"I	c #BABABA",
"J	c #F1F1F1",
"K	c #C5C5C5",
"L	c #343434",
"M	c #FCFCFC",
"N	c #232323",
"O	c #060606",
"P	c #181818",
"Q	c #585858",
"R	c #717171",
"S	c #6A6A6A",
"................................",
".+@@@@@@@@@@@@@@@@@@@@@@@@@@@#$.",
".%&&&&&&&&&&&&&&&&&&&&&&&&&&&*=.",
".%&&&&&&&&&&&&&&&&&&&&&&&&&&&*=.",
".%&&&&&&&&&&&&&&&&&&&&&&&&&&&*=.",
".%&&&&&&&&&&&&&&&&&&&&&&&&&&&*=.",
".%&&&&&-;>,'&&&&&&&)!>~{&&&&&*=.",
".%&&&&&-].^/&&&&&&&(_.:;&&&&&*=.",
".%&&&&&-].^/&&&&&&&(_.:;&&&&&*=.",
".%&&&&&-].^/&&&&&&&(_.:;&&&&&*=.",
".%&&&&&-].^/&&&&&&&(_.:;&&&&&*=.",
".%&&&&&-].^/&&&&&&&(_.:;&&&&&*=.",
".%&&&&&-].^/&&&&&&&(_.:;&&&&&*=.",
".%&&&&&&;.^<&&&&&&&&[.:}&&&&&*=.",
".%&&-|123..4522222216.^3278&&*=.",
".%&&-9...................0a&&*=.",
".%&&-b...................cd&&*=.",
".%&&&effg.^hifffffjk1.09lle&&*=.",
".%&&&&&-].^/&&&&&&&(_.:m&&&&&*=.",
".%&&&&&-m.^n&&&&&&&(o.:p&&&&&*=.",
".%&&&&&-q..3&&&&&&&rs.tu&&&&&*=.",
".%&&&&&&v..0w&&&&&-x..>*&&&&&*=.",
".%&&&&&&*o.ca&&&&&yz.cA&&&&&&*=.",
".%&&&&&&BC..cD&&&&E..6]&&&&&&*=.",
".%&&&&&&&FG...GHIJ..cK&&&&&&&*=.",
".%&&&&&&&-LM........2v&&&&&&&*=.",
".%&&&&&&&&&N[......gO&&&&&&&&*=.",
".%&&&&&&&&&&&PQRS@*&&&&&&&&&&*=.",
".%&&&&&&&&&&&&&&&&&&&&&&&&&&&*=.",
".%&&&&&&&&&&&&&&&&&&&&&&&&&&&*=.",
".+@@@@@@@@@@@@@@@@@@@@@@@@@@@#$.",
"................................"};
