/* XPM */
static char * umbrella_btc64_xpm[] = {
"64 64 128 2",
"  	c None",
". 	c #FFFFFF",
"+ 	c #C3C3C3",
"@ 	c #979797",
"# 	c #989898",
"$ 	c #9F9F9F",
"% 	c #D2D2D2",
"& 	c #6A6A6A",
"* 	c #000000",
"= 	c #0F0F0F",
"- 	c #909090",
"; 	c #6C6C6C",
"> 	c #111111",
", 	c #919191",
"' 	c #050505",
") 	c #868686",
"! 	c #CBCBCB",
"~ 	c #C9C9C9",
"{ 	c #C4C4C4",
"] 	c #676767",
"^ 	c #0A0A0A",
"/ 	c #747474",
"( 	c #CECECE",
"_ 	c #777777",
": 	c #060606",
"< 	c #ABABAB",
"[ 	c #F9F9F9",
"} 	c #838383",
"| 	c #0C0C0C",
"1 	c #949494",
"2 	c #F8F8F8",
"3 	c #010101",
"4 	c #A9A9A9",
"5 	c #818181",
"6 	c #080808",
"7 	c #929292",
"8 	c #F7F7F7",
"9 	c #959595",
"0 	c #181818",
"a 	c #ACACAC",
"b 	c #AAAAAA",
"c 	c #E3E3E3",
"d 	c #FDFDFD",
"e 	c #D6D6D6",
"f 	c #A8A8A8",
"g 	c #AEAEAE",
"h 	c #DCDCDC",
"i 	c #DDDDDD",
"j 	c #A7A7A7",
"k 	c #1E1E1E",
"l 	c #252525",
"m 	c #2D2D2D",
"n 	c #D5D5D5",
"o 	c #D3D3D3",
"p 	c #F0F0F0",
"q 	c #FEFEFE",
"r 	c #E9E9E9",
"s 	c #D1D1D1",
"t 	c #D4D4D4",
"u 	c #ECECEC",
"v 	c #EDEDED",
"w 	c #D0D0D0",
"x 	c #BBBBBB",
"y 	c #7F7F7F",
"z 	c #040404",
"A 	c #FAFAFA",
"B 	c #0D0D0D",
"C 	c #A2A2A2",
"D 	c #8F8F8F",
"E 	c #0E0E0E",
"F 	c #9D9D9D",
"G 	c #F6F6F6",
"H 	c #8C8C8C",
"I 	c #FBFBFB",
"J 	c #A0A0A0",
"K 	c #101010",
"L 	c #F3F3F3",
"M 	c #7D7D7D",
"N 	c #BDBDBD",
"O 	c #131313",
"P 	c #666666",
"Q 	c #030303",
"R 	c #616161",
"S 	c #E1E1E1",
"T 	c #191919",
"U 	c #EBEBEB",
"V 	c #464646",
"W 	c #383838",
"X 	c #262626",
"Y 	c #393939",
"Z 	c #E4E4E4",
"` 	c #1B1B1B",
" .	c #767676",
"..	c #858585",
"+.	c #CFCFCF",
"@.	c #070707",
"#.	c #C5C5C5",
"$.	c #E6E6E6",
"%.	c #969696",
"&.	c #7C7C7C",
"*.	c #6F6F6F",
"=.	c #090909",
"-.	c #494949",
";.	c #232323",
">.	c #F1F1F1",
",.	c #3B3B3B",
"'.	c #020202",
").	c #555555",
"!.	c #B0B0B0",
"~.	c #686868",
"{.	c #0B0B0B",
"].	c #F2F2F2",
"^.	c #6D6D6D",
"/.	c #323232",
"(.	c #636363",
"_.	c #4D4D4D",
":.	c #545454",
"<.	c #B2B2B2",
"[.	c #CDCDCD",
"}.	c #F4F4F4",
"|.	c #141414",
"1.	c #A1A1A1",
"2.	c #3A3A3A",
"3.	c #6B6B6B",
"4.	c #D9D9D9",
"5.	c #B3B3B3",
"6.	c #797979",
"7.	c #2E2E2E",
". . . . . . . . . . . . . . . . . . . . . . . . . . . . . . . . . . . . . . . . . . . . . . . . . . . . . . . . . . . . . . . . ",
". . . . . . . . . . . . . . . . . . . . . . . . . . . . . . . . . . . . . . . . . . . . . . . . . . . . . . . . . . . . . . . . ",
". . + @ # # # # # # # # # # # # # # # # # # # # # # # # # # # # # # # # # # # # # # # # # # # # # # # # # # # # # # # @ $ % . . ",
". . & * * * * * * * * * * * * * * * * * * * * * * * * * * * * * * * * * * * * * * * * * * * * * * * * * * * * * * * * * = - . . ",
". . ; * * * * * * * * * * * * * * * * * * * * * * * * * * * * * * * * * * * * * * * * * * * * * * * * * * * * * * * * * > , . . ",
". . ; * * * * * * * * * * * * * * * * * * * * * * * * * * * * * * * * * * * * * * * * * * * * * * * * * * * * * * * * * > , . . ",
". . ; * * * * * * * * * * * * * * * * * * * * * * * * * * * * * * * * * * * * * * * * * * * * * * * * * * * * * * * * * > , . . ",
". . ; * * * * * * * * * * * * * * * * * * * * * * * * * * * * * * * * * * * * * * * * * * * * * * * * * * * * * * * * * > , . . ",
". . ; * * * * * * * * * * * * * * * * * * * * * * * * * * * * * * * * * * * * * * * * * * * * * * * * * * * * * * * * * > , . . ",
". . ; * * * * * * * * * * * * * * * * * * * * * * * * * * * * * * * * * * * * * * * * * * * * * * * * * * * * * * * * * > , . . ",
". . ; * * * * * * * * * * * * * * * * * * * * * * * * * * * * * * * * * * * * * * * * * * * * * * * * * * * * * * * * * > , . . ",
". . ; * * * * * * * * * * * * * * * * * * * * * * * * * * * * * * * * * * * * * * * * * * * * * * * * * * * * * * * * * > , . . ",
". . ; * * * * * * * * * * * * * ' ) ! ~ ~ ~ { ] * * * * * * * * * * * * * * * ^ / ( ~ ~ ~ + _ * * * * * * * * * * * * * > , . . ",
". . ; * * * * * * * * * * * * * : < . . . . [ } * * * * * * * * * * * * * * * | 1 . . . . 2 @ * * * * * * * * * * * * * > , . . ",
". . ; * * * * * * * * * * * * * : < . . . . [ } * * * * * * * * * * * * * * * | 1 . . . . 2 @ * * * * * * * * * * * * * > , . . ",
". . ; * * * * * * * * * * * * * : < . . . . [ } * * * * * * * * * * * * * * * | 1 . . . . 2 @ * * * * * * * * * * * * * > , . . ",
". . ; * * * * * * * * * * * * * : < . . . . [ } * * * * * * * * * * * * * * * | 1 . . . . 2 @ * * * * * * * * * * * * * > , . . ",
". . ; * * * * * * * * * * * * * : < . . . . [ } * * * * * * * * * * * * * * * | 1 . . . . 2 @ * * * * * * * * * * * * * > , . . ",
". . ; * * * * * * * * * * * * * : < . . . . [ } * * * * * * * * * * * * * * * | 1 . . . . 2 @ * * * * * * * * * * * * * > , . . ",
". . ; * * * * * * * * * * * * * : < . . . . [ } * * * * * * * * * * * * * * * | 1 . . . . 2 @ * * * * * * * * * * * * * > , . . ",
". . ; * * * * * * * * * * * * * : < . . . . [ } * * * * * * * * * * * * * * * | 1 . . . . 2 @ * * * * * * * * * * * * * > , . . ",
". . ; * * * * * * * * * * * * * : < . . . . [ } * * * * * * * * * * * * * * * | 1 . . . . 2 @ * * * * * * * * * * * * * > , . . ",
". . ; * * * * * * * * * * * * * : < . . . . [ } * * * * * * * * * * * * * * * | 1 . . . . 2 @ * * * * * * * * * * * * * > , . . ",
". . ; * * * * * * * * * * * * * : < . . . . [ } * * * * * * * * * * * * * * * | 1 . . . . 2 @ * * * * * * * * * * * * * > , . . ",
". . ; * * * * * * * * * * * * * : < . . . . [ } * * * * * * * * * * * * * * * | 1 . . . . 2 @ * * * * * * * * * * * * * > , . . ",
". . ; * * * * * * * * * * * * * : < . . . . [ } * * * * * * * * * * * * * * * | 1 . . . . 2 @ * * * * * * * * * * * * * > , . . ",
". . ; * * * * * * * * * * * * * : < . . . . [ } * * * * * * * * * * * * * * * | 1 . . . . 2 @ * * * * * * * * * * * * * > , . . ",
". . ; * * * * * * * * * * * * * 3 4 . . . . [ 5 * * * * * * * * * * * * * * * 6 7 . . . . 8 9 * * * * * * * * * * * * * > , . . ",
". . ; * * * * * * * 0 a b b b b a c . . . . d e f b b b b b b b b b b b b b b g h . . . . d i j b b b a @ k * * * * * * > , . . ",
". . ; * * * * * * * l . . . . . . . . . . . . . . . . . . . . . . . . . . . . . . . . . . . . . . . . . c m * * * * * * > , . . ",
". . ; * * * * * * * l . . . . . . . . . . . . . . . . . . . . . . . . . . . . . . . . . . . . . . . . . c m * * * * * * > , . . ",
". . ; * * * * * * * l . . . . . . . . . . . . . . . . . . . . . . . . . . . . . . . . . . . . . . . . . c m * * * * * * > , . . ",
". . ; * * * * * * * l . . . . . . . . . . . . . . . . . . . . . . . . . . . . . . . . . . . . . . . . . c m * * * * * * > , . . ",
". . ; * * * * * * * l . . . . . . . . . . . . . . . . . . . . . . . . . . . . . . . . . . . . . . . . . c m * * * * * * > , . . ",
". . ; * * * * * * * k n % % % % o p . . . . q r s % % % % % % % % % % % % % % t u . . . . q v w % % % n x l * * * * * * > , . . ",
". . ; * * * * * * * * * * * * * * f . . . . [ y * * * * * * * * * * * * * * * z - . . . . 8 1 * * * * * * * * * * * * * > , . . ",
". . ; * * * * * * * * * * * * * : < . . . . [ } * * * * * * * * * * * * * * * | 1 . . . . 2 @ * * * * * * * * * * * * * > , . . ",
". . ; * * * * * * * * * * * * * : 4 . . . . A ) * * * * * * * * * * * * * * * B 9 . . . . 8 9 * * * * * * * * * * * * * > , . . ",
". . ; * * * * * * * * * * * * * : C . . . . A D * * * * * * * * * * * * * * * E F . . . . G H * * * * * * * * * * * * * > , . . ",
". . ; * * * * * * * * * * * * * ' 1 . . . . I J * * * * * * * * * * * * * * * K g . . . . L M * * * * * * * * * * * * * > , . . ",
". . ; * * * * * * * * * * * * * z y . . . . d N * * * * * * * * * * * * * * * O ~ . . . . p P * * * * * * * * * * * * * > , . . ",
". . ; * * * * * * * * * * * * * Q R . . . . . S * * * * * * * * * * * * * * * T p . . . . U V * * * * * * * * * * * * * > , . . ",
". . ; * * * * * * * * * * * * * 3 W . . . . . L X * * * * * * * * * * * * * 3 Y . . . . . Z ` * * * * * * * * * * * * * > , . . ",
". . ; * * * * * * * * * * * * * * > A . . . . 2  .* * * * * * * * * * * * * ^ ... . . . . +.* * * * * * * * * * * * * * > , . . ",
". . ; * * * * * * * * * * * * * * @.#.. . . . q e * * * * * * * * * * * * * 0 $.. . . . 8 %.* * * * * * * * * * * * * * > , . . ",
". . ; * * * * * * * * * * * * * * z &.. . . . . 2 *.* * * * * * * * * * * =.5 . . . . . u -.* * * * * * * * * * * * * * > , . . ",
". . ; * * * * * * * * * * * * * * 3 ;.. . . . . . >.,.* * * * * * * * * '.).. . . . . . s * * * * * * * * * * * * * * * > , . . ",
". . ; * * * * * * * * * * * * * * * : !.. . . . . . G ~.* * * * * * * {.H . . . . . . ].^.* * * * * * * * * * * * * * * > , . . ",
". . ; * * * * * * * * * * * * * * * 3 /.. . . . . . . . U # (._.:. .<.I . . . . . . . [.* * * * * * * * * * * * * * * * > , . . ",
". . ; * * * * * * * * * * * * * * * * ' D . . . . . . . . . . . . . . . . . . . . . u Y * * * * * * * * * * * * * * * * > , . . ",
". . ; * * * * * * * * * * * * * * * * * | ~ . . . . . . . . . . . . . . . . . . . }.P * * * * * * * * * * * * * * * * * > , . . ",
". . ; * * * * * * * * * * * * * * * * * * |.w . . . . . . . . . . . . . . . . . G ~.* * * * * * * * * * * * * * * * * * > , . . ",
". . ; * * * * * * * * * * * * * * * * * * * ^ 1.. . . . . . . . . . . . . . . i Y * * * * * * * * * * * * * * * * * * * > , . . ",
". . ; * * * * * * * * * * * * * * * * * * * * * 2.{ . . . . . . . . . . . c 3.* * * * * * * * * * * * * * * * * * * * * > , . . ",
". . ; * * * * * * * * * * * * * * * * * * * * * * * T & a t u ].v 4.5.6.7.* * * * * * * * * * * * * * * * * * * * * * * > , . . ",
". . ; * * * * * * * * * * * * * * * * * * * * * * * * * * * * * * * * * * * * * * * * * * * * * * * * * * * * * * * * * > , . . ",
". . ; * * * * * * * * * * * * * * * * * * * * * * * * * * * * * * * * * * * * * * * * * * * * * * * * * * * * * * * * * > , . . ",
". . ; * * * * * * * * * * * * * * * * * * * * * * * * * * * * * * * * * * * * * * * * * * * * * * * * * * * * * * * * * > , . . ",
". . ; * * * * * * * * * * * * * * * * * * * * * * * * * * * * * * * * * * * * * * * * * * * * * * * * * * * * * * * * * > , . . ",
". . ; * * * * * * * * * * * * * * * * * * * * * * * * * * * * * * * * * * * * * * * * * * * * * * * * * * * * * * * * * > , . . ",
". . & * * * * * * * * * * * * * * * * * * * * * * * * * * * * * * * * * * * * * * * * * * * * * * * * * * * * * * * * * = - . . ",
". . + @ # # # # # # # # # # # # # # # # # # # # # # # # # # # # # # # # # # # # # # # # # # # # # # # # # # # # # # # @ $ % . . ",
". . . . . . . . . . . . . . . . . . . . . . . . . . . . . . . . . . . . . . . . . . . . . . . . . . . . . . . . . . . . . . . . ",
". . . . . . . . . . . . . . . . . . . . . . . . . . . . . . . . . . . . . . . . . . . . . . . . . . . . . . . . . . . . . . . . "};
