/* XPM */
static char * umbrella_btc16_xpm[] = {
"16 16 99 2",
"  	c None",
". 	c #C9C9C9",
"+ 	c #949494",
"@ 	c #939393",
"# 	c #939293",
"$ 	c #939292",
"% 	c #949292",
"& 	c #959595",
"* 	c #D0D0D0",
"= 	c #7D7D7D",
"- 	c #090909",
"; 	c #070707",
"> 	c #0E0E0E",
", 	c #909090",
"' 	c #7B7B7B",
") 	c #030303",
"! 	c #000000",
"~ 	c #171717",
"{ 	c #191919",
"] 	c #010101",
"^ 	c #1B1B1B",
"/ 	c #131313",
"( 	c #8E8E8E",
"_ 	c #0A0A0A",
": 	c #9F9F9F",
"< 	c #121212",
"[ 	c #1A1A1A",
"} 	c #ABABAB",
"| 	c #050505",
"1 	c #7C7B7B",
"2 	c #B0B0B0",
"3 	c #C3C3C3",
"4 	c #D2D2D2",
"5 	c #989898",
"6 	c #7D7A7B",
"7 	c #8E8D8D",
"8 	c #7D7A7A",
"9 	c #080808",
"0 	c #242424",
"a 	c #B5B5B5",
"b 	c #C6C6C6",
"c 	c #2C2C2C",
"d 	c #343434",
"e 	c #D3D3D3",
"f 	c #A1A1A1",
"g 	c #1E1E1E",
"h 	c #8D8C8C",
"i 	c #7C797A",
"j 	c #515151",
"k 	c #CBCBCB",
"l 	c #F5F5F5",
"m 	c #F8F8F8",
"n 	c #D1D1D1",
"o 	c #FBFBFB",
"p 	c #EFEFEF",
"q 	c #C7C7C7",
"r 	c #424242",
"s 	c #8D8B8C",
"t 	c #434343",
"u 	c #AAAAAA",
"v 	c #E9E9E9",
"w 	c #B2B2B2",
"x 	c #AEAEAE",
"y 	c #B4B4B4",
"z 	c #E0E0E0",
"A 	c #A6A6A6",
"B 	c #373737",
"C 	c #7C7A7A",
"D 	c #1C1C1C",
"E 	c #252525",
"F 	c #D4D4D4",
"G 	c #969696",
"H 	c #0D0D0D",
"I 	c #020202",
"J 	c #060606",
"K 	c #999999",
"L 	c #D8D8D8",
"M 	c #262626",
"N 	c #333333",
"O 	c #E1E1E1",
"P 	c #7C7C7C",
"Q 	c #8D8D8D",
"R 	c #666666",
"S 	c #F2F2F2",
"T 	c #202020",
"U 	c #8C8C8C",
"V 	c #EBEBEB",
"W 	c #4B4B4B",
"X 	c #ACACAC",
"Y 	c #CECECE",
"Z 	c #F1F1F1",
"` 	c #7A7A7A",
" .	c #A3A3A3",
"..	c #696969",
"+.	c #141414",
"@.	c #101010",
"#.	c #0F0F0F",
"$.	c #939192",
"%.	c #929292",
". + @ @ @ # $ % $ $ $ @ @ @ & * ",
"= - ; ; ; ; ; ; ; ; ; ; ; ; > , ",
"' ) ! ! ~ { ] ! ! ] ^ / ! ! ; ( ",
"' ) ! _ , : < ! ! [ } = | ! ; ( ",
"1 ) ! _ 2 3 / ! ! ^ 4 5 | ! ; ( ",
"6 ) ! _ 2 3 / ! ! ^ 4 5 | ! ; 7 ",
"8 ) 9 0 a b c [ [ d e f g | ; h ",
"i ) j k l m 4 n n e o p q r 9 s ",
"i ) t u v p w x x y l z A B 9 s ",
"C ) ) < x q D - - E F G H I ; h ",
"C ) ! J K L M ! ! N O P I ! ; Q ",
"1 ) ! ] R S ' [ T U V W ] ! ; ( ",
"' ) ! ! g X S Y 4 Z @ > ! ! ; ( ",
"' ) ! ! ] M ` }  ...+.! ! ! ; ( ",
"= - ; ; ; ; - @.#.9 ; ; ; ; > , ",
". + @ @ @ @ $ $.$.%.$ @ @ @ & * "};
