/* XPM */
static char *graphic[] = {
/* width height num_colors chars_per_pixel */
"64 64 416 2", 
/* colors */
"   c None",
".  c #195C2C",
"X  c None",
"o  c None",
"O  c #195C2D",
"+  c #5A8A68",
"@  c None",
"#  c #FDFDFD",
"$  c #165929",
"%  c #3F754F",
"&  c #185A2B",
"*  c #1A5C2D",
"=  c #1B5B2C",
"-  c #D2D3D5",
";  c None",
":  c #1A5B2D",
">  c #9CB8A4",
",  c None",
"<  c #E2EAE5",
"1  c #1C5C2F",
"2  c None",
"3  c #BBCFC1",
"4  c #39724A",
"5  c #BDD0C3",
"6  c #F0F1F2",
"7  c #AEC1B5",
"8  c #16592A",
"9  c #1A5C2E",
"0  c #ECEDED",
"q  c #467A54",
"w  c #105423",
"e  c #185A2C",
"r  c None",
"t  c #D8E3DB",
"y  c #1A5B2E",
"u  c None",
"i  c #195C2C",
"p  c #145627",
"a  c #CECFD1",
"s  c #B5CABB",
"d  c None",
"f  c #1B5B2C",
"g  c #799F85",
"h  c #FBFCFC",
"j  c None",
"k  c #0E5322",
"l  c #105424",
"z  c #92B19B",
"x  c #125526",
"c  c #2F6B41",
"v  c #B1C8B8",
"b  c #195C2C",
"n  c #3F764F",
"m  c #F1F5F2",
"M  c None",
"N  c #195C2E",
"B  c #2B673C",
"V  c #1A5C2D",
"C  c #1B5B2C",
"Z  c None",
"A  c None",
"S  c #4C7F5B",
"D  c None",
"F  c #4E805D",
"G  c #0A4F1E",
"H  c #E8E9EA",
"J  c #195C2C",
"K  c #D7D9DA",
"L  c #29663B",
"P  c None",
"I  c #E4E5E5",
"U  c #195C2C",
"Y  c #1A5C2E",
"T  c #195A2C",
"R  c None",
"E  c #E3ECE5",
"W  c #94B09D",
"Q  c #447953",
"!  c #195C2E",
"~  c #195A2E",
"^  c None",
"/  c None",
"(  c None",
")  c #216033",
"_  c #679274",
"`  c None",
"'  c #A5BEAC",
"]  c #F5F5F6",
"[  c #7EA388",
"{  c #E4E5E6",
"}  c None",
"|  c #80A48A",
" . c #447954",
".. c #C6D6CB",
"X. c #1B5C2D",
"o. c #195C2E",
"O. c #195A2B",
"+. c #E1E9E3",
"@. c #D3D3D5",
"#. c #387148",
"$. c None",
"%. c #1B5C2D",
"&. c #DBE6DE",
"*. c None",
"=. c #598967",
"-. c #195A2C",
";. c #155828",
":. c #90AA98",
">. c #E0E1E2",
",. c #97B59F",
"<. c #1B5C2D",
"1. c None",
"2. c #195C2E",
"3. c #1A5C2D",
"4. c #17592A",
"5. c #D1D2D4",
"6. c None",
"7. c #195A2C",
"8. c None",
"9. c #BACEC0",
"0. c #1B5C2E",
"q. c #3A724B",
"w. c #326C42",
"e. c None",
"r. c #FAFBFA",
"t. c #51835F",
"y. c #97B5A0",
"u. c #EBECEC",
"i. c #0F5322",
"p. c #D7E2DA",
"a. c #749C80",
"s. c #F8FAF9",
"d. c #769D82",
"f. c #CDCED0",
"g. c #1A5A2C",
"h. c #1B5C2E",
"j. c #0B511F",
"k. c #FAFBFB",
"l. c #D3E0D7",
"z. c #0D5221",
"x. c #8FAF98",
"c. c None",
"v. c #0F5323",
"b. c #DCDDDF",
"n. c #1B5C2D",
"m. c None",
"M. c #E0DDE1",
"N. c #1B5C2D",
"B. c #306B42",
"V. c #F0F4F1",
"C. c #09501E",
"Z. c #0B5120",
"A. c #1A5C2E",
"S. c #195B2E",
"D. c #CBDACF",
"F. c #1A5A2E",
"G. c None",
"H. c None",
"J. c #0D5222",
"K. c #F4F6F5",
"L. c #C9CACC",
"P. c None",
"I. c #89AA92",
"U. c #6A9577",
"Y. c #1B5C2E",
"T. c #1B5A2E",
"R. c #649070",
"E. c #CBDAD0",
"W. c None",
"Q. c #1B5C2D",
"!. c #226235",
"~. c None",
"^. c None",
"/. c None",
"(. c #1B5A2E",
"). c #FAF7FA",
"_. c #1E5E30",
"`. c #A8C1B0",
"'. c #F0F2F1",
"]. c None",
"[. c None",
"{. c #649071",
"}. c #A2BCA9",
"|. c #E8EEEA",
" X c #226034",
".X c #A4BDAB",
"XX c #417751",
"oX c None",
"OX c #1A5C2D",
"+X c #1B5C2D",
"@X c #7FA389",
"#X c #1C5D2F",
"$X c #9EBAA6",
"%X c #FCF6FB",
"&X c #1B5C2E",
"*X c #1E5E31",
"=X c #205F33",
"-X c #1A5A2E",
";X c None",
":X c #FDFEFD",
">X c None",
",X c None",
"<X c #1B5C2E",
"1X c None",
"2X c #FFFFFF",
"3X c #1B5A2E",
"4X c #397149",
"5X c #1B5C2D",
"6X c #DDDFDF",
"7X c #DAE5DD",
"8X c #145727",
"9X c #B5CBBB",
"0X c #165829",
"qX c #E1E1E3",
"wX c #FDFCFC",
"eX c #D0D1D3",
"rX c #1A5B2D",
"tX c #18592B",
"yX c #1B5C2E",
"uX c None",
"iX c None",
"pX c None",
"aX c #105524",
"sX c None",
"dX c None",
"fX c #125626",
"gX c None",
"hX c #50825E",
"jX c #145728",
"kX c #FBFBFB",
"lX c #0C511F",
"zX c #5A8969",
"xX c #16582A",
"cX c #195D2F",
"vX c #98B5A1",
"bX c #719A7D",
"nX c None",
"mX c #1B5C2D",
"MX c None",
"NX c #1B5C2C",
"BX c #105323",
"VX c #2D693E",
"CX c #B7CCBE",
"ZX c #DBDCDD",
"AX c #1A5B2D",
"SX c #739B7F",
"DX c #F5F8F6",
"FX c #D8E2DB",
"GX c None",
"HX c #2F6A40",
"JX c #1A5B2E",
"KX c #125525",
"LX c None",
"PX c #CCCDCF",
"IX c #D0DED4",
"UX c #0A501E",
"YX c #125627",
"TX c #D2DFD6",
"RX c #0C5120",
"EX c #FFFBFE",
"WX c #D4E0D8",
"QX c #0E5222",
"!X c #D6E1DA",
"~X c None",
"^X c #DBDCDE",
"/X c #EDF2EE",
"(X c #1B5C2E",
")X c #B1C7B8",
"_X c #8AAC94",
"`X c None",
"'X c #FDFDFD",
"]X c #0A501F",
"[X c #8CAD96",
"{X c #195B2E",
"}X c #1B5A2C",
"|X c #1B5C2D",
" o c #E9F0EB",
".o c #1B5C2E",
"Xo c #236235",
"oo c #A5BFAC",
"Oo c #F0ECF1",
"+o c #C8D8CD",
"@o c None",
"#o c #195B2E",
"$o c #1B5A2C",
"%o c #1B5A2C",
"&o c #1B5A2E",
"*o c #A5BFAD",
"=o c None",
"-o c #A7C0AF",
";o c #3C744C",
":o c #F1F2F2",
">o c #F3F3F4",
",o c None",
"<o c #407650",
"1o c #195B2C",
"2o c #1B5C2E",
"3o c None",
"4o c #1B5C2E",
"5o c #1B5B2D",
"6o c #FDFDFD",
"7o c #7EA48A",
"8o c #598866",
"9o c #9FBAA7",
"0o c #E0E0E1",
"qo c None",
"wo c #FDFDFD",
"eo c #FCFDFC",
"ro c #D1D1D3",
"to c #3E754F",
"yo c #175A2B",
"uo c #FEFEFE",
"io c #195B2D",
"po c #9BB8A4",
"ao c #D9E4DC",
"so c #EFEFF0",
"do c #135626",
"fo c #1B5B2D",
"go c #1B5C2F",
"ho c #DBE5DE",
"jo c #155728",
"ko c #326D43",
"lo c #195B2E",
"zo c #1B5B2E",
"xo c None",
"co c #1A5B2C",
"vo c #789F84",
"bo c #92AA9A",
"no c None",
"mo c None",
"Mo c #1A5B2E",
"No c #1B5A2E",
"Bo c None",
"Vo c #F6F8F6",
"Co c #0F5423",
"Zo c None",
"Ao c #EDEEEF",
"So c #115525",
"Do c #1B5B2E",
"Fo c #F8F9F8",
"Go c #4F815D",
"Ho c #D9E4DD",
"Jo c #9FB8A7",
"Ko c None",
"Lo c None",
"Po c #FAFAFA",
"Io c #DEDFE1",
"Uo c #135627",
"Yo c #D3DFD6",
"To c #326D44",
"Ro c #FCFBFC",
"Eo c #D1CFD3",
"Wo c #FDFDFD",
"Qo c #F2F6F3",
"!o c #70997C",
"~o c None",
"^o c None",
"/o c #729A7E",
"(o c #EDECEE",
")o c #054D19",
"_o c #F4F7F5",
"`o c #1B5B2C",
"'o c #B0C6B6",
"]o c #F6F8F7",
"[o c #B5C1BA",
"{o c #B2C7B8",
"}o c None",
"|o c #115526",
" O c None",
".O c #F8F9F9",
"XO c None",
"oO c #E7E9E9",
"OO c #E1E9E5",
"+O c #8DAD96",
"@O c #0B501F",
"#O c None",
"$O c None",
"%O c #2A673C",
"&O c #ACC4B3",
"*O c #0D5121",
"=O c #AEC5B5",
"-O c #246235",
";O c #1B5B2C",
":O c #457A54",
">O c #5B8568",
",O c #D6D7D8",
"<O c #C7D7CB",
"1O c #1B5B2E",
"2O c #8BAC95",
"3O c #E6EEE8",
"4O c #C9D8CD",
"5O c #669273",
"6O c #A4BEAB",
"7O c None",
"8O c #EAF0EC",
"9O c #034C19",
"0O c #C5D6CA",
"qO c #1B5B2E",
"wO c #1E5F31",
"eO c #346A45",
"rO c #206033",
"tO c #195C2E",
"yO c #1B5B2C",
"uO c None",
"iO c None",
"pO c #A4BEAC",
"aO c #226135",
"sO c #608D6D",
"dO c None",
"fO c #1C5C2E",
"gO c #1B5B2E",
"hO c #FDFDFD",
"jO c #3B734B",
"kO c #E9E6EA",
"lO c None",
"zO c None",
/* pixels */
"                                              XOdO>XX.`o<XN mXb b mXN <X`ozo^.~oXO                                              ",
"                                        A MX0.. %o4o4o4o4o4o4o4o4o4o4o4o4o4o4oU F.%.; no                                        ",
"                                    GX,X3.2o4o4o4o4o4o4o4o4o4o4o4o4o4o4o4o4o4o4o4o4o4oyXoXu                                     ",
"                                $.5oT 4o4o4o4o4o4o4o4o4o4o4o4o4o4o4o4o4o4o4o4o4o4o4o4o4o4ob X.GX                                ",
"                            X ,of 4o4o4o4o4o4o4o4o4o4o4o4o4o4o4o4o4o4o4o4o4o4o4o4o4o4o4o4o4o4omXW.@                             ",
"                          P Q.4o4o4o4o4o4o4o4o4o4o4o4o4o4o4o4o4o4o4o4o4o4o4o4o4o4o4o4o4o4o4o4o4o4o&Xmo                          ",
"                        G.}X4o4o4o4o4o4o4o4o4o4o4o4o4o4o4o4o4o4o4o4o4o4o4o4o4o4o4o4o4o4o4o4o4o4o4o4oNX/.                        ",
"                    X rX4o4o4o4o4o4o4o4o4o4o4o4o4o4o4o4o4o4o4o4o4o4o4o4o4o4o4o4o4o4o4o4o4o4o4o4o4o4o4o4oKX1X                    ",
"                  [.(.4o4o4o4o4o4o4o4o4o4o4o4o4o4o4o4o4o4o4o4o4o4o4o4o4o4o4o4o4o4o4o4o4o4o4o4o4o4o4o4o4oBXn Lo                  ",
"                [.n.4o4o4o4o4o4o4o4o4o4o4o4o4o4o4o4o4o4o4o4o4o4o4o4o4o4o4o4o4o4o4o4o4o4o4o4o4o4o4o4o4o1ol =Owo^o                ",
"              xo1O4o4o4o4o4o4o4o4o4o4o4o4o4o4o4o4o4o4o4o4o4o4o4o4o4o4o4o4o4o4o4o4o4o4o4o4o4o4o4o4o4o4oUX/o2X2X6osX              ",
"              9 4o4o4o4o4o4o4o4o4o4o4o4o4o4o4o4o4o4o4o4o4o4o4o4o4o4o4o4o4o4o4o4o4o4o4o4o4o4o4o4o4ofOl q.V.2X2X2X'X              ",
"            m.4o4o4o4o4o4o4o4o4o4o4o4o4o4o4o4o4o4o4o4o4o4o4o4o4o4o4o4o4o4o4o4o4o4o4o4o4o4o4o4o4o4o4.xX0O2X2X2X2X2X}             ",
"          R NX4o4o4o4o4o4o4o4o4o4o4o4o4o4o4o4o4o4o4o4o4o4o4o4o4o4o4o4o4o4o4o4o4o4o4o4o4o4o4o4o4o4oUXI.2X2X2X2X2X2X# o           ",
"        XOQ.4o4o4o4o4o4o4o4o4o4o4o4o4o4o4o4o4o4o4o4o4o4o4o4o4o4o4o4o4o4o4o4o4o4o4o4o4o4o4o4o4ofOz.S s.2X2X2X2X2X2X2XWogX        ",
"        }o4o4o4o4o4o4o4o4o4o4o4o4o4o4o4o4o4o4o4o4o4o4o4o4o4o4o4o4o4o4o4o4o4o4o4o4o4o4o4o4o4o4ojorOp.2X2X2X2X2X2X2X2X2X6.        ",
"      ` &o4o4o4o4o4o4o4o4o4o4o4o4o4o4o4o4o4o4o4o4o4o4o4o4o4o4o4o4o4o4o4o4o4o4o4o4o4o4o4o4o4o: RX9o2X2X2X2X2X2X2X2X2X2XhO7O      ",
"      pX4o4o4o4o4o4o4o4o4o4o4o4o4o4o4o4o4o4o4o4o4o4o4o4o4o4o4o4o4o4o4o4o4o4o4o4o4o4o4o4o4o1 j.sO2X2X2X2X2X2X2X2X2X2X2X2XOO      ",
"    uXb 4o4o4o4o4o4o4o4o4o4o4o4o4o4o4o4o4o4o4o4o4o4o4o4o4o4o4o4o4o4o4o4o4o4o4o4o4o4o4o4o4ox VX3O2X2X2X2X2X2X2X2X2X2X2XVoq H.    ",
"    ( 4o4o4o4o4o4o4o4o4o4o4o4o4o4o4o4o4o4o4o4o4o4o4o4o4o4o4o4o4o4o4o4o4o4o4o4o4o4o4o4o4o1oaX9X2X2X2X2X2X2X2X2X2X2X2X2X| C.~.    ",
"  XOF.4o4o4o4o4o4o4o4o4o4o4o4o4o4o4o4o4o4o4o4o4o4o4o4o4o4o4o4o4o4o4o4o4o4o4o4o4o4o4o4o4oUXd.2X2X2X2X2X2X2X2X2X2X2X2X5 do& 5Xno  ",
"  `XNo4o4o4o4o4o4o4o4o4o4o4o4o4o4o4o4o4o4o4o4o4o4o4o4o4o4o4o4o4o4o4o4o4o4o4o4o4o4o4ofOw ;om 2X2X2X2X2X2X2X2X2X2X2X8OkoSo4o2oMX  ",
"  * 4o4o4o4o4o4o4o4o4o4o4o4o4o4o4o4o4o4o4o4o4o4o4o4o4o4o4o4o4o4o4o4o4o4o4o4o4o4o4o4o4.& 4O2X2X2X2X2X2X2X2X2X2X2X2X_ ]XfO4o4ofo  ",
"@ cX4o4o4o4o4o4o4o4o4o4o4o4o4o4o4o4o4o4o4o4o4o4o4o4o4o4o4o4o4o4o4o4o4o4o4o4o4o4o4o4oUX[X2X2X2X2X2X2X2X2X2X2X2X2X*oz.: 4o4o4oyXXO",
"LX$o4o4o4o4o4o4o4o4o4o4o4o4o4o4o4o4o4o4o4o4o4o4o4o4o4o4o4o4o4o4o4o4o4o4o4o4o4o4o1 z.Gor.2X2X2X2X2X2X2X2X2X2X2X7XXojX4o4o4o4oU dX",
"#O4o4o4o4o4o4o4o4o4o4o4o4o4o4o4o4o4o4o4o4o4o4o4o4o4o4o4o4o4o4o4o4o4o4o4o4o4o4o4ojo Xao2X2X2X2X2X2X2X2X2X2X2Xk.hXz.1 4o4o4o4o4o^.",
"iX4o4o4o4o4o4o4o4o4o4o4o4o4o4o4o4o4o4o4o4o4o4o4o4o4o4o4o4o4o4o4o4o4o4o4o4o4o4o: z.}.2X2X2X2X2X2X2X2X2X2X2X2X+O@O4o4o4o4o4o4o4ozo",
"V 4o4o4o4o4o4o4o4oio& & & e e e e e e e e e & : 4o4o4o4o4o4o4o4o4o4o4o4o4o4o1 j.R.2X2X2X2X2X2X2X2X2X2X2X2X+o& 4.4o4o4o4o4o4o4oN.",
"O 4o4o4o4o4o4o1 $ yorO*X*X#X#X#X#X#X#X#X#X#X_.0Xe 4o4o4o4o4o4o4o4o4o4o4o4o4ox HX|.2X2X2X2X2X2X2X2X2X2X2XV.jOw fO4o4o4o4o4o4o4oyO",
"5X4o4o4o4o4o4o8X) 7 hop.!Xl.l.l.l.l.l.l.l.l.t $Xdoe 4o4o4o4o4o4o4o4o4o4o4o7.SoCX2X2X2X2X2X2X2X2X2X2X2X2XSXUX4o4o4o4o4o4o4o4o4oco",
"#o4o4o4o4o4o8 jos %X(o2X2X2X2X2X2X2X2X2X2X2X2X2X[ C.4o4o4o4o4o4o4o4o4o4o4oG vo2X2X2X2X2X2X2X2X2X2X2X2X{ol 1o4o4o4o4o4o4o4o4o4of ",
"(X4o4o4o4oe k > 2XPoZXu.2X2X2X2X2X2X2X2X2X2X2X2Xs.Goz.1 4o4o4o4o4o4o4ofOBXtoQo2X2X2X2X2X2X2X2X2X2X2XE %Odo4o4o4o4o4o4o4o4o4o4o(X",
"! 4o4o4o: joz 2X2X2X).M.EX2X2X2X2X2X2X2X2X2X2X2X2X+.B fX4o4o4o4o4o4o4o4.7.E.2X2X2X2X2X2X2X2X2X2X2Xuo+ RXfO4o4o4o4o4o4o4o4o4o4o(X",
"A.4o4o4o;.#.`.*opO' .X:.bo]o2X2X2X2X2X2X2X2X2X2X2X2X9.p tX4o4o4o4o4o4o@Ox.2X2X2X2X2X2X2X2X2X2X2X2XvXZ.y 4o4o4o4o4o4o4o4o4o4o4of ",
"~ 4o4o4o4oOXCoz.z.z.k Co)og 2X2X2X2X2X2X2X2X2X2X2X2X2X_XUX: 4o4o4o1 z.t.k.2X2X2X2X2X2X2X2X2X2X2XTX#X0X4o4o4o4o4o4o4o4o4o4o4o4oco",
"Mo4o4o4o4o4o4o4o4o4o4o4o& v.&O2X2X2X2X2X2X2X2X2X2X2X2XeozXj.go4o4ojo-O&.2X2X2X2X2X2X2X2X2X2X2XDX .k 4o4o4o4o4o4o4o4o4o4o4o4o4o+X",
"Y 4o4o4o4o4o4o4o4o4o4o4o4ojX!.FX2X2X2X2X2X2X2X2X2X2X2X2X|.ToaX1 : z.oo2X2X2X2X2X2X2X2X2X2X2X2X7oUX4o4o4o4o4o4o4o4o4o4o4o4o4o4oqO",
"2 4o4o4o4o4o4o4o4o4o4o4o4o1 QX:O_o2X2X2X2X2X2X2X2X2X2X2X2X..O.4.j.5O2X2X2X2X2X2X2X2X2X2X2X2X3 YX& 4o4o4o4o4o4o4o4o4o4o4o4o4o4o9 ",
"j 4o4o4o4o4o4o4o4o4o4o4o4o4o4oUXa.2X2X2X2X2X2X2X2X2X2X2X2X2XW 9Oc  o2X2X2X2X2X2X2X2X2X2X2X8Ow.|o4o4o4o4o4o4o4o4o4o4o4o4o4o4o4o O",
"R %o4o4o4o4o4o4o4o4o4o4o4o4o4o1ok -o2X2X2X2X2X2X2X2X2X2Xuo>okO>Ov 2X2X2X2X2X2X2X2X2X2X2X2X5O]Xgo4o4o4o4o4o4o4o4o4o4o4o4o4o4oloc.",
"@ 3.4o4o4o4o4o4o4o4o4o4o4o4o4o4ojo=XWX2X2X2X2X2X2X2X2X2X] I @.qX2X2X2X2X2X2X2X2X2X2X2X2X6Oz.: 4o4o4o4o4o4o4o4o4o4o4o4o4o4o4o= A ",
"  Do4o4o4o4o4o4o4o4o4o4o4o4o4o4ofOk XXQo2X2X2X2X2X2X2X.OH ,O5.Ro2X2X2X2X2X2X2X2X2X2X2XHoaOjo4o4o4o4o4o4o4o4o4o4o4o4o4o4o4o4oS.  ",
"  *.No4o4o4o4o4o4o4o4o4o4o4o4o4o4o4oUX!o2X2X2X2X2X2Xh 0 ^XPXso2X2X2X2X2X2X2X2X2X2X2Xr.F z.1 4o4o4o4o4o4o4o4o4o4o4o4o4o4o4o2o8.  ",
"  A = 4o4o4o4o4o4o4o4o4o4o4o4o4o4o4o1oJ.pO2X2X2X2Xuo'.>.f.Io2X2X2X2X2X2X2X2X2X2X2X2X2OUX4o4o4o4o4o4o4o4o4o4o4o4o4o4o4o4o4og.e.  ",
"    ,X4o4o4o4o4o4o4o4o4o4o4o4o4o4o4o4o;.wOYo2X2X2XK.{ - rokX2X2X2X2X2X2X2X2X2X2X2X<O4.4.4o4o4o4o4o4o4o4o4o4o4o4o4o4o4o4o4oD     ",
"    lO.o4o4o4o4o4o4o4o4o4o4o4o4o4o4o4ofOi.<om 2XFooOK L.6 2X2X2X2X2X2X2X2X2X2X2XV.4 l fO4o4o4o4o4o4o4o4o4o4o4o4o4o4o4o4oNXu     ",
"      X.4o4o4o4o4o4o4o4o4o4o4o4o4o4o4o4o4oUX!o2XAob.L.0o2X2X2X2X2X2X2X2X2X2X2X2XbX]X4o4o4o4o4o4o4o4o4o4o4o4o4o4o4o4o4o4o*       ",
"      qoT 4o4o4o4o4o4o4o4o4o4o4o4o4o4o4o4o1ok JoOoa eXwX2X2X2X2X2X2X2X2X2X2X2X'ov.1o4o4o4o4o4o4o4o4o4o4o4o4o4o4o4o4o4o-XGX      ",
"        ~X4o4o4o4o4o4o4o4o4o4o4o4o4o4o4o4o4o$ *X[oEo:o2X2X2X2X2X2X2X2X2X2X2X< L Uo4o4o4o4o4o4o4o4o4o4o4o4o4o4o4o4o4o4o(         ",
"        A O 4o4o4o4o4o4o4o4o4o4o4o4o4o4o4o4o1 SoeO6X2X2X2X2X2X2X2X2X2X2X2X:X=.lXfO4o4o4o4o4o4o4o4o4o4o4o4o4o4o4o4o4oyOe.        ",
"          P o.4o4o4o4o4o4o4o4o4o4o4o4o4o4o4o4o4oZ.U.2X2X2X2X2X2X2X2X2X2X2Xy.Z.: 4o4o4o4o4o4o4o4o4o4o4o4o4o4o4o4o4o|Xmo          ",
"            Zo4o4o4o4o4o4o4o4o4o4o4o4o4o4o4o4o4o: RXpo2X2X2X2X2X2X2X2X2XIX1 0X4o4o4o4o4o4o4o4o4o4o4o4o4o4o4o4o4o4oM             ",
"              %.4o4o4o4o4o4o4o4o4o4o4o4o4o4o4o4o4o8 OXD.2X2X2X2X2X2X2XDXQ i.4o4o4o4o4o4o4o4o4o4o4o4o4o4o4o4o4o4oAX              ",
"              XOY.4o4o4o4o4o4o4o4o4o4o4o4o4o4o4o4o1 l 4X/X2X2X2X2X2X2X@XUX4o4o4o4o4o4o4o4o4o4o4o4o4o4o4o4o4o4otOno              ",
"                $O3X4o4o4o4o4o4o4o4o4o4o4o4o4o4o4o4ofO@O{.2X2X2X2X2X9.fXe 4o4o4o4o4o4o4o4o4o4o4o4o4o4o4o4o4o;O].                ",
"                  , `o4o4o4o4o4o4o4o4o4o4o4o4o4o4o4o4o: j.,.2X2X2X8OB.x 4o4o4o4o4o4o4o4o4o4o4o4o4o4o4o4o4otO].                  ",
"                    A <.4o4o4o4o4o4o4o4o4o4o4o4o4o4o4o4o8 : )Xr.8O8o*Ogo4o4o4o4o4o4o4o4o4o4o4o4o4o4o4o4oAXno                    ",
"                        M o.4o4o4o4o4o4o4o4o4o4o4o4o4o4o1 0X& % B.So4o4o4o4o4o4o4o4o4o4o4o4o4o4o4o4oJ W.                        ",
"                          zOMo4o4o4o4o4o4o4o4o4o4o4o4o4o4o4o1ofXjo4o4o4o4o4o4o4o4o4o4o4o4o4o4o4o4oyOBo                          ",
"                            A @oT 4o4o4o4o4o4o4o4o4o4o4o4o4o4o4o4o4o4o4o4o4o4o4o4o4o4o4o4o4o4ob r e.                            ",
"                                =oJX}X4o4o4o4o4o4o4o4o4o4o4o4o4o4o4o4o4o4o4o4o4o4o4o4o4o4oC foP.                                ",
"                                    P.;XN 4o4o4o4o4o4o4o4o4o4o4o4o4o4o4o4o4o4o4o4o4o4ocouOiO                                    ",
"                                        3o1.T.{X2.4o4o4o4o4o4o4o4o4o4o4o4o4o4o-.g.h.d ^                                         ",
"                                              e.KonX%.3X. i (Xb b (Xi 3.gO<.Z / [.                                              "
};
