/* XPM */
static char *graphic[] = {
/* width height num_colors chars_per_pixel */
"32 32 236 2", 
/* colors */
"   c None",
".  c #81A58C",
"X  c #195C2C",
"o  c #185A2B",
"O  c #1A5C2D",
"+  c #1B5B2C",
"@  c #1A5B2D",
"#  c #FDFDFD",
"$  c #1C5C2F",
"%  c #799F84",
"&  c #FBFCFB",
"*  c #FDFDFD",
"=  c #ECEDED",
"-  c #105423",
";  c #4A7E5A",
":  c #125525",
">  c None",
",  c #759D81",
"<  c #195C2C",
"1  c #145627",
"2  c #1B5B2E",
"3  c #F9FBFA",
"4  c None",
"5  c #0C5220",
"6  c #0E5322",
"7  c #F9F9F9",
"8  c #125526",
"9  c #6D9779",
"0  c #195C2C",
"q  c #316C43",
"w  c #B3C9BA",
"e  c #0A511F",
"r  c #1B5B2C",
"t  c #F3F6F4",
"y  c #4A7E59",
"u  c None",
"i  c #1A5C2E",
"p  c None",
"a  c #CEDCD2",
"s  c #1A5C2E",
"d  c #D0DDD4",
"f  c #0A4F1E",
"g  c #DCE3DF",
"h  c #276539",
"j  c #679273",
"k  c None",
"l  c #86A990",
"z  c #195C2C",
"x  c #88AA92",
"c  c None",
"v  c #195A2C",
"b  c None",
"n  c None",
"m  c #195C2E",
"M  c None",
"N  c None",
"B  c #1F5F31",
"V  c #E7EEE9",
"C  c None",
"Z  c #E4E5E6",
"A  c #D3D5D6",
"S  c #E1EBE4",
"D  c #A2B5A9",
"F  c #1D5E30",
"G  c #195C2E",
"H  c None",
"J  c #C2D4C8",
"K  c None",
"L  c None",
"P  c #EAE6EB",
"I  c #1B5C2D",
"U  c #155828",
"Y  c #1B5C2D",
"T  c #1A5C2D",
"R  c #17592A",
"E  c #DFE8E2",
"W  c #1A5C2E",
"Q  c #195A2C",
"!  c #9BB7A3",
"~  c #E4E3E6",
"^  c #F8FAF8",
"/  c #135727",
"(  c #155829",
")  c #0F5322",
"_  c #17592B",
"`  c #558563",
"'  c #1A5C2F",
"]  c #115424",
"[  c #1B5C2D",
"{  c #DEDEE0",
"}  c #0D5221",
"|  c None",
" . c #0F5323",
".. c None",
"X. c #6A9576",
"o. c #145728",
"O. c #115425",
"+. c #EEF3EF",
"@. c #FAF9FA",
"#. c #1A5C2E",
"$. c None",
"%. c #CDDBD1",
"&. c None",
"*. c #266438",
"=. c #85A88F",
"-. c None",
";. c #A6C0AE",
":. c #1B5A2E",
">. c None",
",. c #1E5E30",
"<. c #0E5220",
"1. c #437853",
"2. c #D4D5D7",
"3. c #608E6E",
"4. c #9EBAA6",
"5. c #83A58D",
"6. c #1E5E31",
"7. c #E6EDE9",
"8. c #5C8A69",
"9. c #7BA186",
"0. c #377047",
"q. c #FFFFFF",
"w. c #7DA288",
"e. c #1A5C2E",
"r. c #195D2C",
"t. c #588866",
"y. c None",
"u. c #165829",
"i. c #FBFDFC",
"p. c #1A5B2D",
"a. c #18592B",
"s. c #1B5C2E",
"d. c #92B29B",
"f. c #1B5C2E",
"g. c #BBCEC1",
"h. c None",
"j. c #125626",
"k. c #145728",
"l. c #D4E0D7",
"z. c #ECECED",
"x. c #D6E1D9",
"c. c #1B5C2D",
"v. c None",
"b. c #1B5C2C",
"n. c #1B5A2C",
"m. c #F5F8F6",
"M. c #1A5B2E",
"N. c #F7F9F8",
"B. c #1B5A2E",
"V. c #0A501E",
"C. c #50825F",
"Z. c #0C5120",
"A. c #FDFDFD",
"S. c #0E5222",
"D. c #2B683D",
"F. c None",
"G. c #2D693F",
"H. c #1B5C2E",
"J. c #1B5C2F",
"K. c #8AAC94",
"L. c #195D2E",
"P. c #0A501F",
"I. c #487C57",
"U. c #0C5121",
"Y. c #1A5B2E",
"T. c #1B5C2E",
"R. c #256337",
"E. c #195B2E",
"W. c #1B5A2C",
"Q. c None",
"!. c #487C58",
"~. c #1B5A2C",
"^. c #1B5C2E",
"/. c #759880",
"(. c #1B5C2D",
"). c None",
"_. c #E3EBE5",
"`. c #1D5D2F",
"'. c #B5C5BA",
"]. c #82A68D",
"[. c #C2D3C7",
"{. c #407650",
"}. c #195B2C",
"|. c #E1EAE4",
" X c #1B5C2E",
".X c #EDF0EF",
"XX c #1B5A2E",
"oX c #E3EBE6",
"OX c #1B5D2E",
"+X c None",
"@X c None",
"#X c #7AA085",
"$X c #FCFDFC",
"%X c #175A2B",
"&X c #FEFEFE",
"*X c #D7E3DA",
"=X c #195B2D",
"-X c #115524",
";X c #135626",
":X c #1B5B2D",
">X c #598867",
",X c #DBE5DE",
"<X c None",
"1X c #B6CBBC",
"2X c #17582A",
"3X c #1A5B2E",
"4X c None",
"5X c #115525",
"6X c None",
"7X c #135627",
"8X c #0B501E",
"9X c #1B5B2D",
"0X c #6E987A",
"qX c #97B4A0",
"wX c #155729",
"eX c #ACC4B2",
"rX c #195C2D",
"tX c #AEC5B4",
"yX c None",
"uX c None",
"iX c #FDFDFD",
"pX c #0B501F",
"aX c #28663A",
"sX c None",
"dX c #0D5121",
"fX c #2C683E",
"gX c #175729",
"hX c #457A54",
"jX c #1B5B2E",
"kX c #206032",
"lX c #FDFDFD",
"zX c None",
"xX c #1B5B2C",
"cX c None",
"vX c #1C5C2E",
"bX c None",
/* pixels */
"                    > L Y.W n.v v n.W i L ..                    ",
"                6XY.T. X X X X X X X X X Xr i n                 ",
"            F.O ^. X X X X X X X X X X X X X XW.M.@X            ",
"          h.X  X X X X X X X X X X X X X X X X X Xo.-.          ",
"        y.c. X X X X X X X X X X X X X X X X X X X} ; 4         ",
"      b H. X X X X X X X X X X X X X X X X X X Xu.`.d lXzX      ",
"    >.T  X X X X X X X X X X X X X X X X X X X@ pXqXq.q.iXv.    ",
"    p. X X X X X X X X X X X X X X X X X X X XZ.>X* q.q.q.A.    ",
"  | ~. X X X X X X X X X X X X X X X X X X X7XaX|.q.q.q.q.# N   ",
"  9X X X X X X X X X X X X X X X X X X X X=X6 tXq.q.q.q.q.*XgX  ",
"bXr  X X X X X X X X X X X X X X X X X XvX8X0Xq.q.q.q.q.^ y <.H ",
"sX X X X X X X X X X X X X X X X X X X X5X0.+.q.q.q.q.q.l f  XQ.",
"9X X X X X X X X X X X X X X X X X X Xo k.[.q.q.q.q.q.J wX%X Xi ",
"3X X X$ 7XZ.Z.U.U.U.Z.6 @  X X X X X XP.=.q.q.q.q.q.+.0.O.vX XxX",
"J. X X) 1.5.9.#X#X#Xw.X.u.Q  X X XvXS.I.N.q.q.q.q.q.9 V.vX X Xr.",
"H. Xj.hX.Xq.q.q.q.q.q.q., V. X X X( 6.l.q.q.q.q.q.eX6 =X X X XL.",
"m o kX;.a '.g q.q.q.q.q.m.I.} $ @ Z.! q.q.q.q.q.E *.1  X X X Xm ",
"n.e.,.F _ -Xq 7.q.q.q.q.q.,XR.k.dX8.&Xq.q.q.q.$X` 5 $  X X X X< ",
"'  X X}.}.@ pXt.$Xq.q.q.q.q.w pXh _.q.q.q.q.q.d.P.e. X X X X XxX",
"rX X X X X X(.V.K.q.q.q.q.q.q./.;.q.q.q.q.q.%.=XR  X X X X X Xs ",
"L  X X X X X Xa./ g.q.q.q.&XZ ~ q.q.q.q.q.t {. .$  X X X X X Xu ",
"K b. X X X X X X: fXoXq.q.= 2.@.q.q.q.q.q.% f  X X X X X X XG > ",
"  i  X X X X X X$ Z.` i.7 A z.q.q.q.q.q.1X] Q  X X X X X X X[   ",
"  C z  X X X X X X Xe x P { q.q.q.q.q.V G.8  X X X X X X Xz 4X  ",
"    OX X X X X X X Xo ;XD q.q.q.q.q.q.3.pX$  X X X X X X XI     ",
"    +Xs. X X X X X X Xj.D.S q.q.q.q.4.Z.@  X X X X X X X+ &.    ",
"      yXv  X X X X X X$ U.C.3 q.q.x.B U  X X X X X X X0 |       ",
"        cXm  X X X X X X XV.. q.& !.S.vX X X X X X Xv p         ",
"          k s. X X X X X Xo 2X].j  . X X X X X X Xf.C           ",
"            c :X~. X X X X X}.} -  X X X X X Xz Y M             ",
"                <X[ b. X X X X X X X X X XXXjX<X                ",
"                    ).$.[ B.E.v v #.2 :.uX).                    "
};
