/* XPM */
static char *graphic[] = {
/* width height num_colors chars_per_pixel */
"16 16 127 2", 
/* colors */
"   c None",
".  c None",
"X  c #BFD1C4",
"o  c #145628",
"O  c #DEE8E1",
"+  c #185A2B",
"@  c #A6BDAD",
"#  c #1A5B2D",
"$  c #9CB8A4",
"%  c #1C5C2F",
"&  c None",
"*  c #16592A",
"=  c #F7FAF8",
"-  c #316C42",
";  c #B5CABB",
":  c #105424",
">  c #779C82",
",  c #ECEBED",
"<  c None",
"1  c #D0DDD4",
"2  c #0A4F1E",
"3  c #EDF1EE",
"4  c #064D1B",
"5  c #195C2E",
"6  c #0A4F1F",
"7  c #155829",
"8  c #155628",
"9  c #A1BCA9",
"0  c #1A5A2C",
"q  c #1B5B2D",
"w  c #407751",
"e  c #88A892",
"r  c None",
"t  c #155828",
"y  c #195A2C",
"u  c #FEFFFF",
"i  c #1C5D2F",
"p  c #084D1D",
"a  c #155829",
"s  c #0F5322",
"d  c #17592B",
"f  c #578665",
"g  c #135526",
"h  c #1C5D30",
"j  c #1B5C2E",
"k  c #0B511F",
"l  c #0D5221",
"z  c #2C693E",
"x  c #246335",
"c  c #F8F8F8",
"v  c #2E6A40",
"b  c #1C5B2F",
"n  c #246336",
"m  c #1B5A2E",
"M  c #E6EDE7",
"N  c #C5D5C9",
"B  c None",
"V  c None",
"C  c #1A5C2D",
"Z  c #C5D5CA",
"A  c #1C5D2F",
"S  c #1E5E31",
"D  c #E0E8E2",
"F  c #FFFFFF",
"G  c None",
"H  c #7FA38A",
"J  c #1B5C2D",
"K  c #145727",
"L  c #165829",
"P  c #195B2E",
"I  c #1B5C2E",
"U  c #F7F9F7",
"Y  c #125626",
"T  c #145728",
"R  c #D4E0D7",
"E  c None",
"W  c #16582A",
"Q  c #2D693E",
"!  c #F5F8F6",
"~  c #0A501E",
"^  c #155928",
"/  c #0C5120",
"(  c #0E5222",
")  c None",
"_  c #175A2C",
"`  c #AFC6B6",
"'  c #BFD1C2",
"]  c None",
"[  c #FDFDFD",
"{  c #195D2E",
"}  c #1B5C2C",
"|  c #1B5C2C",
" . c #ADC3B3",
".. c None",
"X. c #236235",
"o. c #487C58",
"O. c #1A5B2C",
"+. c #1B5C2E",
"@. c #1C5C2D",
"#. c None",
"$. c #BED1C4",
"%. c #366F46",
"&. c #1B5B2C",
"*. c #135626",
"=. c #769E82",
"-. c #DBE5DE",
";. c #B6CBBC",
":. c #FCFDFD",
">. c #7AA086",
",. c #1B5A2E",
"<. c #0F5423",
"1. c #115525",
"2. c #95B39E",
"3. c #135627",
"4. c #1B5B2D",
"5. c #FCFBFC",
"6. c #195C2D",
"7. c #F1EEF2",
"8. c #0B501F",
"9. c #0D5121",
"0. c #477B56",
"q. c #437953",
"w. c #83A68D",
"e. c #5E8C6B",
"r. c None",
"t. c #1C5C2E",
"y. c #054C19",
/* pixels */
"        ] j I 5 5 I &..         ",
"    B m } +.+.+.+.+.+.| p ..    ",
"  B P +.+.+.+.+.+.+.+.+ *.' E   ",
"  m +.+.+.+.+.+.+.+.+.2 H F [   ",
"r.} +.+.+.+.+.+.+.% s q.! F 3 G ",
"j +.C # # # +.+.+.W +.1 F F =.y.",
"i d 1.Y 1.: L A q 8.2.F F ; : _ ",
"^ Q  .$.;.` - Y 9.f :.F M z g { ",
"8 w > Z F F X <.X.D F u e.k % 5 ",
"h * 4 x -.F F e 9 F F $ / # +.J ",
"&.+.A l o.= 5., F F R S a +.+.4.",
"V | +.+.~ >.7.c F U 0.( t.+.| < ",
"  j +.+.y ( @ F F w.6 +.+.+.4.  ",
"  #.0 +.+.T n O N K + +.+.O.)   ",
"    ) j | % 3.%.v t +.,.&.)     ",
"        & 6.b o 7 @.6.r         "
};
